<?xml version="1.0" encoding="UTF-8"?>
<svg version="1.1" xmlns="http://www.w3.org/2000/svg" width="236" height="213">
<path d="M0 0 C77.88 0 155.76 0 236 0 C236 70.29 236 140.58 236 213 C158.12 213 80.24 213 0 213 C0 142.71 0 72.42 0 0 Z " fill="#FEFEFE" transform="translate(0,0)"/>
<path d="M0 0 C4.73222455 -0.07445407 9.46410411 -0.1287447 14.19677734 -0.16479492 C15.80491072 -0.17983176 17.41300344 -0.20026672 19.02099609 -0.22631836 C21.33962064 -0.26292822 23.65770049 -0.27977722 25.9765625 -0.29296875 C27.04567368 -0.31619453 27.04567368 -0.31619453 28.13638306 -0.33988953 C33.67580342 -0.34173472 37.44554841 1.10562729 41.859375 4.37890625 C43.44334878 6.63010186 43.33199589 8.21113668 43.25 10.9375 C43.23453125 11.79214844 43.2190625 12.64679687 43.203125 13.52734375 C43.01607379 15.80433252 42.57040154 17.79659406 42 20 C42 20.99 42 21.98 42 23 C41.34 23 40.68 23 40 23 C39.690625 23.804375 39.38125 24.60875 39.0625 25.4375 C38 28 38 28 37 29 C35.33382885 29.04063832 33.66611905 29.042721 32 29 C32.495 31.97 32.495 31.97 33 35 C33.56203125 34.76925781 34.1240625 34.53851563 34.703125 34.30078125 C37 34 37 34 39.296875 35.29296875 C40.10640625 35.91816406 40.9159375 36.54335938 41.75 37.1875 C46.02283008 40.35725525 50.17865904 42.76789771 55 45 C53.07608351 39.68588506 53.07608351 39.68588506 49 36 C49.11168987 29.74536708 50.47738465 26.07102219 54.84375 21.5078125 C58.75566479 18.77230687 62.45608116 19.27694271 67 20 C67.77472656 20.11085938 68.54945312 20.22171875 69.34765625 20.3359375 C72.25483215 20.89521272 74.45358839 21.40805409 76.5 23.625 C77.75115937 29.56800702 77.24097311 34.39756723 75 40 C74.01 38.02 74.01 38.02 73 36 C72.54625 36.66 72.0925 37.32 71.625 38 C71.08875 38.66 70.5525 39.32 70 40 C69.34 40 68.68 40 68 40 C66.66216607 40.31478446 65.32796291 40.64587656 64 41 C64.71563266 43.0162233 64.71563266 43.0162233 66 45 C67.85744207 45.61067144 67.85744207 45.61067144 70 46 C71.68991979 46.9601817 73.36209288 47.95355934 75 49 C75.495 48.01 75.495 48.01 76 47 C76.50833591 48.24663331 77.00631145 49.49749387 77.5 50.75 C77.7784375 51.44609375 78.056875 52.1421875 78.34375 52.859375 C79 55 79 55 79 59 C77.515 59.495 77.515 59.495 76 60 C76 56.7 76 53.4 76 50 C75.34 50 74.68 50 74 50 C74.495 55.445 74.495 55.445 75 61 C75.33 61 75.66 61 76 61 C76 62.65 76 64.3 76 66 C76.66 66 77.32 66 78 66 C78.33 67.65 78.66 69.3 79 71 C77.515 70.01 77.515 70.01 76 69 C75.63736141 74.8022175 76.74315457 78.63999211 79 84 C81.32978149 79.61948999 81.32978149 79.61948999 81.75 74.875 C81.37875 73.946875 81.37875 73.946875 81 73 C80.835 72.13375 80.67 71.2675 80.5 70.375 C80.10412687 67.99712092 80.10412687 67.99712092 79 66 C79.9375 63.875 79.9375 63.875 81 62 C81.99 64.64 82.98 67.28 84 70 C86.34973818 68.10244856 86.34973818 68.10244856 86.125 64.875 C86.08375 63.92625 86.0425 62.9775 86 62 C89.66704983 65.29094216 91.23677063 67.16621398 92 72 C92.515625 72.45375 93.03125 72.9075 93.5625 73.375 C95 75 95 75 95.5 78.375 C94.8754761 82.90279826 93.36232058 84.03795568 90 87 C88.70480005 89.16620544 88.70480005 89.16620544 88 91 C82.34979382 90.39891424 77.33835539 88.92471317 72 87 C72.495 85.515 72.495 85.515 73 84 C71.02 84.99 71.02 84.99 69 86 C69 85.01 69 84.02 69 83 C68.01 83.66 67.02 84.32 66 85 C66.3609375 85.60585937 66.721875 86.21171875 67.09375 86.8359375 C71.13668368 94.13567886 72.27801912 99.69912523 70.3125 107.8515625 C69.60604685 110.26301316 68.84563585 112.63423304 68 115 C67.01 115 66.02 115 65 115 C64.10594786 119.98114761 63.52537724 124.9697924 63 130 C63.66 128.35 64.32 126.7 65 125 C65.66 125.33 66.32 125.66 67 126 C66.94972656 127.1653125 66.89945312 128.330625 66.84765625 129.53125 C66.84904202 136.61531672 68.24055636 143.54148322 69.4375 150.5 C72.22640386 166.96171366 72.22640386 166.96171366 73 175 C73.43134349 165.49446764 72.54847124 156.57190429 71.06713867 147.19848633 C70.86374878 145.90720825 70.86374878 145.90720825 70.65625 144.58984375 C70.46772461 143.44310181 70.46772461 143.44310181 70.27539062 142.27319336 C69.97925726 139.82878046 69.95441085 137.45991472 70 135 C70.66 135 71.32 135 72 135 C72 135.99 72 136.98 72 138 C72.66 138 73.32 138 74 138 C75.26700515 141.89492424 76.53031321 145.7910265 77.7902832 149.68823242 C78.21896831 151.01245057 78.64864291 152.33634884 79.0793457 153.65991211 C79.70006379 155.56799234 80.3168705 157.47734357 80.93359375 159.38671875 C81.30540771 160.53358154 81.67722168 161.68044434 82.06030273 162.86206055 C86.50892976 177.7174004 83.7915302 192.34799006 77 206 C76.34 206 75.68 206 75 206 C74.34 205.01 73.68 204.02 73 203 C72.0925 203.515625 71.185 204.03125 70.25 204.5625 C67 206 67 206 64.625 205.6875 C64.08875 205.460625 63.5525 205.23375 63 205 C61.89155081 201.67465243 62.15545644 199.37817425 63 196 C59.535 196.99 59.535 196.99 56 198 C56 198.66 56 199.32 56 200 C54.35 200.33 52.7 200.66 51 201 C50.505 198.525 50.505 198.525 50 196 C49.34 196 48.68 196 48 196 C46.49042774 189.24176109 45.70023824 183.79326056 47.41796875 177.06640625 C48.78909994 169.84266136 48.71387683 162.33378864 49 155 C54.94567757 160.7932243 54.94567757 160.7932243 55.11352539 164.52197266 C55.10828857 165.5588623 55.10305176 166.59575195 55.09765625 167.6640625 C55.09443359 168.78554687 55.09121094 169.90703125 55.08789062 171.0625 C55.07532227 172.8259375 55.07532227 172.8259375 55.0625 174.625 C55.05798828 175.80835938 55.05347656 176.99171875 55.04882812 178.2109375 C55.03701467 181.14067507 55.02054258 184.07031272 55 187 C56.13141162 182.65832287 57.20538248 178.4759202 57.625 174 C57.69976562 173.236875 57.77453125 172.47375 57.8515625 171.6875 C57.90054688 171.130625 57.94953125 170.57375 58 170 C60.12038635 172.61514317 62.13091744 175.19637616 64 178 C63.44094022 169.24139679 59.35996724 162.90568386 53 157 C50.62858408 154.36619359 48.31244574 151.68563583 46 149 C42.28015693 159.11000206 39.01243319 169.08894359 41 180 C42.954307 182.25206523 42.954307 182.25206523 45 184 C44.82702096 187.45958074 43.5577226 189.96179723 42 193 C41.45472656 192.86722656 40.90945312 192.73445312 40.34765625 192.59765625 C34.90097013 191.32210753 29.56879648 190.53036157 24 190 C22.78541942 186.43323872 23.19919147 183.73315863 23.875 180.0625 C24.05804687 179.04285156 24.24109375 178.02320313 24.4296875 176.97265625 C24.77271834 175.18466671 25.13133277 173.39941912 25.52026367 171.62084961 C25.98700801 169.0709766 26.17072324 166.68223209 26.24609375 164.09375 C26.27896484 163.18496094 26.31183594 162.27617187 26.34570312 161.33984375 C26.40689709 159.4467367 26.46418949 157.5534995 26.51757812 155.66015625 C26.69355394 150.97853548 26.97622165 147.29651355 29 143 C29.46746438 137.10994884 28.84693437 134.28072523 26 129 C16.14057582 162.2884969 16.14057582 162.2884969 18.609375 194.69921875 C20.49233168 197.12587055 20.49233168 197.12587055 22.56640625 199.1328125 C24 201 24 201 23.83984375 203.1796875 C23 205 23 205 21 206 C18.64453125 206.34375 18.64453125 206.34375 15.8125 206.5 C14.89082031 206.5721875 13.96914062 206.644375 13.01953125 206.71875 C9.16741349 205.80181641 7.08386948 204.62641395 4.39819336 201.7109375 C1.42301447 195.94240486 2.13736346 189.18595424 2.30712891 182.84082031 C2.37446483 180.27042888 2.38911095 177.70400419 2.39453125 175.1328125 C2.41355218 173.46871149 2.43559243 171.80464171 2.4609375 170.140625 C2.46741302 169.38815491 2.47388855 168.63568481 2.4805603 167.8604126 C2.61207162 163.52498013 3.27644221 159.77994119 4.52685547 155.62036133 C6.17783733 149.93846532 6.32275187 144.81442486 6.109375 138.93359375 C6.08530579 137.93288345 6.06123657 136.93217316 6.03643799 135.90113831 C5.9832342 133.80945452 5.92234627 131.71795288 5.85400391 129.62670898 C5.74925948 126.41479235 5.66755201 123.20290883 5.58984375 119.99023438 C5.5351702 117.95048513 5.47922713 115.91076943 5.421875 113.87109375 C5.38268951 112.42904823 5.38268951 112.42904823 5.3427124 110.95787048 C5.31308411 110.07257156 5.28345581 109.18727264 5.25292969 108.27514648 C5.22833679 107.4955809 5.2037439 106.71601532 5.17840576 105.91282654 C5.10858367 103.91531736 5.10858367 103.91531736 4 102 C3.37601104 92.17217393 5.33577651 82.64853383 7 73 C6.38125 72.71125 5.7625 72.4225 5.125 72.125 C3 71 3 71 1 69 C-1.0085728 54.5518489 -0.11531783 39.48233375 -0.0625 24.9375 C-0.05747229 22.50976655 -0.05291165 20.08203209 -0.04882812 17.65429688 C-0.03792937 11.76950872 -0.02129308 5.88475925 0 0 Z " fill="#702304" transform="translate(0,0)"/>
<path d="M0 0 C3.90258155 1.30086052 5.29813495 3.74070319 7.625 6.9375 C11.48927909 12.10811438 15.53756749 16.97774873 19.9140625 21.73046875 C21.84154676 23.8276005 23.70761357 25.96376355 25.5625 28.125 C28.56142407 31.57410897 31.75593513 34.77526041 35.01171875 37.98046875 C37.61925194 40.62898478 40.04417483 43.4127748 42.45703125 46.23828125 C45.12422052 49.28360368 46.93617012 51.25261987 50.90234375 52.39453125 C52.09404175 52.74028198 52.09404175 52.74028198 53.30981445 53.09301758 C54.17695068 53.33044678 55.04408691 53.56787598 55.9375 53.8125 C56.84395264 54.06604248 57.75040527 54.31958496 58.68432617 54.58081055 C78.12871205 59.87435706 97.36495384 63.88764406 117.5 64.5625 C119.30597656 64.62727539 119.30597656 64.62727539 121.1484375 64.69335938 C124.09886193 64.79873168 127.04936071 64.90085903 130 65 C126.51321064 67.32452624 124.93032429 67.29773734 120.80078125 67.4140625 C119.59228516 67.45273438 118.38378906 67.49140625 117.13867188 67.53125 C115.87603516 67.5621875 114.61339844 67.593125 113.3125 67.625 C112.03826172 67.66367188 110.76402344 67.70234375 109.45117188 67.7421875 C106.30092708 67.83657686 103.15069009 67.9221583 100 68 C103.29158865 68.05905417 106.58303756 68.09394375 109.875 68.125 C111.25171875 68.15013672 111.25171875 68.15013672 112.65625 68.17578125 C118.25142288 68.21518388 123.31350243 67.67376999 128.77197266 66.45849609 C135.440766 65.086154 142.73702682 65.21645637 149 68 C149 68.66 149 69.32 149 70 C149.61875 70.28875 150.2375 70.5775 150.875 70.875 C153 72 153 72 155 74 C154.113125 73.979375 153.22625 73.95875 152.3125 73.9375 C149.37830369 73.99286219 146.84506304 74.3305734 144 75 C144.99 75.33 145.98 75.66 147 76 C147.66 76.66 148.32 77.32 149 78 C149.99 76.515 149.99 76.515 151 75 C151 75.99 151 76.98 151 78 C151.99 78 152.98 78 154 78 C153.67 77.01 153.34 76.02 153 75 C153.99 75.33 154.98 75.66 156 76 C155 79 155 79 152.9375 80.5 C152.298125 80.995 151.65875 81.49 151 82 C151 82.99 151 83.98 151 85 C148.36 85 145.72 85 143 85 C142.67 85.66 142.34 86.32 142 87 C142.66 87 143.32 87 144 87 C144 86.34 144 85.68 144 85 C144.99 85.33 145.98 85.66 147 86 C146.34 86.99 145.68 87.98 145 89 C145.45375 88.505 145.9075 88.01 146.375 87.5 C148 86 148 86 150 86 C150 86.99 150 87.98 150 89 C150.99 89.33 151.98 89.66 153 90 C151.3125 91.0625 151.3125 91.0625 149 92 C148.2575 91.814375 147.515 91.62875 146.75 91.4375 C142.69685178 90.79268097 139.68223574 92.38274014 136 94 C136 93.34 136 92.68 136 92 C136.639375 91.71125 137.27875 91.4225 137.9375 91.125 C140.15206079 90.17176549 140.15206079 90.17176549 141 88 C139.35 87.34 137.7 86.68 136 86 C136.33 87.32 136.66 88.64 137 90 C136.01 90.33 135.02 90.66 134 91 C134 92.32 134 93.64 134 95 C132.02 95 130.04 95 128 95 C128.33 94.01 128.66 93.02 129 92 C129.66 92 130.32 92 131 92 C131 90.68 131 89.36 131 88 C128.03 88.495 128.03 88.495 125 89 C125.33 89.33 125.66 89.66 126 90 C126.66 90 127.32 90 128 90 C128 90.99 128 91.98 128 93 C126.68 93 125.36 93 124 93 C124 93.66 124 94.32 124 95 C122.35492782 95.19406478 120.70890406 95.38007935 119.0625 95.5625 C118.14597656 95.66691406 117.22945313 95.77132812 116.28515625 95.87890625 C115.53105469 95.91886719 114.77695313 95.95882812 114 96 C113.67 95.67 113.34 95.34 113 95 C112.67 95.66 112.34 96.32 112 97 C104.4352739 98.7260361 96.74848876 99.23243101 89.01171875 98.97265625 C87.00142474 98.7660982 87.00142474 98.7660982 86 100 C84.06461065 100.09955104 82.12544231 100.12968668 80.1875 100.125 C78.60001953 100.12886719 78.60001953 100.12886719 76.98046875 100.1328125 C74 100 74 100 72.00390625 99.49609375 C69.22883075 98.80908676 66.60293972 98.90648979 63.75 98.9375 C62.67234375 98.94652344 61.5946875 98.95554687 60.484375 98.96484375 C59.25460938 98.98224609 59.25460938 98.98224609 58 99 C57.67 97.68 57.34 96.36 57 95 C56.01 95.33 55.02 95.66 54 96 C54.99 96.495 54.99 96.495 56 97 C56 97.66 56 98.32 56 99 C53.03 99 50.06 99 47 99 C47 98.34 47 97.68 47 97 C46.34 97 45.68 97 45 97 C45 97.66 45 98.32 45 99 C43.741875 99.04125 42.48375 99.0825 41.1875 99.125 C40.47980469 99.14820313 39.77210937 99.17140625 39.04296875 99.1953125 C37 99 37 99 34 97 C34 97.66 34 98.32 34 99 C31.03 99 28.06 99 25 99 C25 98.01 25 97.02 25 96 C24.34 96 23.68 96 23 96 C22.67 93.69 22.34 91.38 22 89 C20.515 89.495 20.515 89.495 19 90 C16.7522025 87.94766315 15.9977758 86.99332739 15 84 C14.34 83.67 13.68 83.34 13 83 C13.2165625 82.01773438 13.2165625 82.01773438 13.4375 81.015625 C17.30808066 61.98527008 11.84532003 46.08848712 5.90625 28.13208008 C-0.57400149 8.41868856 -0.57400149 8.41868856 0 0 Z " fill="#9F320E" transform="translate(70,113)"/>
<path d="M0 0 C0.66 0 1.32 0 2 0 C2.495 2.475 2.495 2.475 3 5 C3.33 5 3.66 5 4 5 C4 6.65 4 8.3 4 10 C4.66 10 5.32 10 6 10 C6.495 12.475 6.495 12.475 7 15 C6.01 14.34 5.02 13.68 4 13 C3.63736141 18.8022175 4.74315457 22.63999211 7 28 C9.32978149 23.61948999 9.32978149 23.61948999 9.75 18.875 C9.5025 18.25625 9.255 17.6375 9 17 C8.7525 15.700625 8.7525 15.700625 8.5 14.375 C8.10412687 11.99712092 8.10412687 11.99712092 7 10 C7.9375 7.875 7.9375 7.875 9 6 C9.99 8.64 10.98 11.28 12 14 C14.34973818 12.10244856 14.34973818 12.10244856 14.125 8.875 C14.08375 7.92625 14.0425 6.9775 14 6 C17.66704983 9.29094216 19.23677063 11.16621398 20 16 C20.515625 16.45375 21.03125 16.9075 21.5625 17.375 C23 19 23 19 23.5 22.375 C22.8754761 26.90279826 21.36232058 28.03795568 18 31 C16.70480005 33.16620544 16.70480005 33.16620544 16 35 C10.34979382 34.39891424 5.33835539 32.92471317 0 31 C0.495 29.515 0.495 29.515 1 28 C-0.98 28.99 -0.98 28.99 -3 30 C-3 29.01 -3 28.02 -3 27 C-3.99 27.66 -4.98 28.32 -6 29 C-5.6390625 29.60585937 -5.278125 30.21171875 -4.90625 30.8359375 C-0.86331632 38.13567886 0.27801912 43.69912523 -1.6875 51.8515625 C-2.39395315 54.26301316 -3.15436415 56.63423304 -4 59 C-4.99 59 -5.98 59 -7 59 C-7.89405214 63.98114761 -8.47462276 68.9697924 -9 74 C-8.34 72.35 -7.68 70.7 -7 69 C-6.01 69.495 -6.01 69.495 -5 70 C-5.05027344 71.1653125 -5.10054687 72.330625 -5.15234375 73.53125 C-5.15095798 80.61531672 -3.75944364 87.54148322 -2.5625 94.5 C0.22640386 110.96171366 0.22640386 110.96171366 1 119 C1.43134349 109.49446764 0.54847124 100.57190429 -0.93286133 91.19848633 C-1.06845459 90.33763428 -1.20404785 89.47678223 -1.34375 88.58984375 C-1.46943359 87.82534912 -1.59511719 87.06085449 -1.72460938 86.27319336 C-2.02074274 83.82878046 -2.04558915 81.45991472 -2 79 C-1.34 79 -0.68 79 0 79 C0 79.99 0 80.98 0 82 C0.66 82 1.32 82 2 82 C3.26700515 85.89492424 4.53031321 89.7910265 5.7902832 93.68823242 C6.21896831 95.01245057 6.64864291 96.33634884 7.0793457 97.65991211 C7.70006379 99.56799234 8.3168705 101.47734357 8.93359375 103.38671875 C9.30540771 104.53358154 9.67722168 105.68044434 10.06030273 106.86206055 C14.50892976 121.7174004 11.7915302 136.34799006 5 150 C4.34 150 3.68 150 3 150 C2.34 149.01 1.68 148.02 1 147 C0.0925 147.515625 -0.815 148.03125 -1.75 148.5625 C-5 150 -5 150 -7.375 149.6875 C-8.179375 149.3471875 -8.179375 149.3471875 -9 149 C-10.10844919 145.67465243 -9.84454356 143.37817425 -9 140 C-12.465 140.99 -12.465 140.99 -16 142 C-16 142.66 -16 143.32 -16 144 C-17.65 144.33 -19.3 144.66 -21 145 C-21.33 143.35 -21.66 141.7 -22 140 C-22.66 140 -23.32 140 -24 140 C-25.50957226 133.24176109 -26.29976176 127.79326056 -24.58203125 121.06640625 C-23.21090006 113.84266136 -23.28612317 106.33378864 -23 99 C-17.05432243 104.7932243 -17.05432243 104.7932243 -16.88647461 108.52197266 C-16.89171143 109.5588623 -16.89694824 110.59575195 -16.90234375 111.6640625 C-16.90556641 112.78554687 -16.90878906 113.90703125 -16.91210938 115.0625 C-16.92467773 116.8259375 -16.92467773 116.8259375 -16.9375 118.625 C-16.94201172 119.80835938 -16.94652344 120.99171875 -16.95117188 122.2109375 C-16.96298533 125.14067507 -16.97945742 128.07031272 -17 131 C-15.86858838 126.65832287 -14.79461752 122.4759202 -14.375 118 C-14.30023438 117.236875 -14.22546875 116.47375 -14.1484375 115.6875 C-14.09945312 115.130625 -14.05046875 114.57375 -14 114 C-11.87961365 116.61514317 -9.86908256 119.19637616 -8 122 C-8.55905978 113.24139679 -12.64003276 106.90568386 -19 101 C-21.37141592 98.36619359 -23.68755426 95.68563583 -26 93 C-29.71984307 103.11000206 -32.98756681 113.08894359 -31 124 C-29.045693 126.25206523 -29.045693 126.25206523 -27 128 C-27.17297904 131.45958074 -28.4422774 133.96179723 -30 137 C-30.54527344 136.86722656 -31.09054688 136.73445312 -31.65234375 136.59765625 C-37.09902987 135.32210753 -42.43120352 134.53036157 -48 134 C-49.21458058 130.43323872 -48.80080853 127.73315863 -48.125 124.0625 C-47.94195312 123.04285156 -47.75890625 122.02320313 -47.5703125 120.97265625 C-47.22728166 119.18466671 -46.86866723 117.39941912 -46.47973633 115.62084961 C-46.01299199 113.0709766 -45.82927676 110.68223209 -45.75390625 108.09375 C-45.72103516 107.18496094 -45.68816406 106.27617187 -45.65429688 105.33984375 C-45.59310291 103.4467367 -45.53581051 101.5534995 -45.48242188 99.66015625 C-45.30649353 94.97979846 -45.02662172 91.29450793 -43 87 C-42.62671598 82.37127814 -42.58105404 79.47693965 -44.75 75.375 C-45.1625 74.26125 -45.575 73.1475 -46 72 C-44.3125 69 -44.3125 69 -42 66 C-41.690625 64.80375 -41.38125 63.6075 -41.0625 62.375 C-39.82275977 58.43700162 -38.39226232 57.23175152 -35 55 C-35.99 54.67 -36.98 54.34 -38 54 C-38 53.01 -38 52.02 -38 51 C-38.66 51 -39.32 51 -40 51 C-40 49.68 -40 48.36 -40 47 C-40.99 47 -41.98 47 -43 47 C-43 46.34 -43 45.68 -43 45 C-43.99 44.67 -44.98 44.34 -46 44 C-46.33 42.02 -46.66 40.04 -47 38 C-43.535 37.505 -43.535 37.505 -40 37 C-40 37.66 -40 38.32 -40 39 C-39.01 39 -38.02 39 -37 39 C-37 38.34 -37 37.68 -37 37 C-37.61875 36.690625 -38.2375 36.38125 -38.875 36.0625 C-40.25 35.375 -41.625 34.6875 -43 34 C-43.33 34.66 -43.66 35.32 -44 36 C-44.66 36 -45.32 36 -46 36 C-46 35.01 -46 34.02 -46 33 C-46.66 33 -47.32 33 -48 33 C-48 31.02 -48 29.04 -48 27 C-46.68 27 -45.36 27 -44 27 C-43.67 26.34 -43.34 25.68 -43 25 C-42.34 25 -41.68 25 -41 25 C-41 25.99 -41 26.98 -41 28 C-39.68 28 -38.36 28 -37 28 C-37.33 27.01 -37.66 26.02 -38 25 C-38.66 25 -39.32 25 -40 25 C-40 24.34 -40 23.68 -40 23 C-39.01 23 -38.02 23 -37 23 C-37 21.68 -37 20.36 -37 19 C-35.35 19.33 -33.7 19.66 -32 20 C-32 20.66 -32 21.32 -32 22 C-30.68 21.67 -29.36 21.34 -28 21 C-28 20.34 -28 19.68 -28 19 C-25.69 19.33 -23.38 19.66 -21 20 C-21 20.66 -21 21.32 -21 22 C-15.95213851 21.01022324 -13.33821124 20.02909951 -10.1328125 15.73046875 C-8.27367037 12.89046888 -6.61313319 9.98728369 -5 7 C-4.34 7 -3.68 7 -3 7 C-2.690625 6.21625 -2.38125 5.4325 -2.0625 4.625 C-1 2 -1 2 0 0 Z " fill="#992F0C" transform="translate(72,56)"/>
<path d="M0 0 C0.33 0 0.66 0 1 0 C1.01417969 1.18078125 1.02835937 2.3615625 1.04296875 3.578125 C1.08987629 5.13545542 1.13812365 6.6927459 1.1875 8.25 C1.19330078 9.02730469 1.19910156 9.80460937 1.20507812 10.60546875 C1.29115406 12.84344294 1.42197742 14.83436433 2 17 C3.6345469 18.3725203 5.29938157 19.71025099 7 21 C7.3046875 24.0234375 7.3046875 24.0234375 6.875 27.375 C6.74867188 28.47585937 6.62234375 29.57671875 6.4921875 30.7109375 C6.17354639 32.84026933 5.82882277 34.96592868 5.453125 37.0859375 C5.02213162 39.85767076 4.86640645 42.44850207 4.875 45.25 C4.87242187 46.10078125 4.86984375 46.9515625 4.8671875 47.828125 C4.86056277 50.04761434 4.86056277 50.04761434 6 52 C6.1325687 53.42137182 6.20791756 54.84831565 6.25292969 56.27514648 C6.28255798 57.1604454 6.31218628 58.04574432 6.3427124 58.95787048 C6.36883606 59.91923416 6.39495972 60.88059784 6.421875 61.87109375 C6.44977112 62.86319351 6.47766724 63.85529327 6.50640869 64.87745667 C6.56289622 66.98488172 6.61650262 69.09238564 6.66748047 71.19995117 C6.74888365 74.39370133 6.85268091 77.58622604 6.95703125 80.77929688 C7.00921031 82.83069409 7.06003284 84.88212634 7.109375 86.93359375 C7.16070587 88.34831215 7.16070587 88.34831215 7.21307373 89.79161072 C7.32413227 95.75358143 6.41050658 100.67147403 4.69735718 106.37010193 C3.65126279 110.3151701 3.51404655 114.11246368 3.49609375 118.17578125 C3.48111595 119.39626411 3.48111595 119.39626411 3.46583557 120.6414032 C3.45081143 122.33941637 3.44360482 124.03751614 3.4440918 125.7355957 C3.43746587 128.32584064 3.38265314 130.91237261 3.32617188 133.50195312 C3.31737856 135.16404957 3.31141849 136.82616395 3.30859375 138.48828125 C3.27625893 139.6368737 3.27625893 139.6368737 3.24327087 140.80867004 C3.29746345 145.06445737 3.87152577 147.36680059 6.8605957 150.49316406 C9.05361269 152.49998371 9.91400151 152.98171957 12.921875 153.62109375 C13.85515625 153.56050781 14.7884375 153.49992188 15.75 153.4375 C17.16539063 153.37369141 17.16539063 153.37369141 18.609375 153.30859375 C21.01028114 153.13195383 21.01028114 153.13195383 23 152 C22.41418178 148.60373743 21.29141416 147.08464553 18.9375 144.625 C14.08050459 138.18801814 15.32706394 131.03585339 16.33837891 123.46777344 C17.22262767 117.4410621 18.27844332 111.44811466 19.37060547 105.45605469 C20.05190908 101.71496315 20.71687501 97.97109826 21.37890625 94.2265625 C22.57393458 87.48219263 23.78241123 80.74033092 25 74 C28.99801267 79.997019 30.56768219 83.84720441 30 91 C29.67386719 91.69351563 29.34773438 92.38703125 29.01171875 93.1015625 C27.49631277 97.44299585 27.60839606 101.74392504 27.5 106.3125 C27.34181826 112.89565174 26.71390685 118.64260134 25 125 C24.73733957 127.16075374 24.52306485 129.32838216 24.375 131.5 C24.30023437 132.5415625 24.22546875 133.583125 24.1484375 134.65625 C24.09945313 135.4296875 24.05046875 136.203125 24 137 C24.59167969 137.06058594 25.18335937 137.12117187 25.79296875 137.18359375 C36.67494824 138.33747412 36.67494824 138.33747412 42 141 C42.99 138.03 43.98 135.06 45 132 C43.68 131.34 42.36 130.68 41 130 C36.49128978 120.98257956 41.00221262 108.06600372 43.90625 99.19140625 C44.2671875 98.13824219 44.628125 97.08507812 45 96 C45.76441406 96.77859375 46.52882812 97.5571875 47.31640625 98.359375 C49.94142942 101.0509787 49.94142942 101.0509787 52.9375 103.25 C58.69794412 107.97118874 62.62991127 115.02140542 65 122 C65.1875 125.4375 65.1875 125.4375 65 128 C62.87961365 125.38485683 60.86908256 122.80362384 59 120 C58.80664062 121.05960937 58.61328125 122.11921875 58.4140625 123.2109375 C58.15144936 124.59903553 57.88840614 125.98705224 57.625 127.375 C57.43550781 128.42300781 57.43550781 128.42300781 57.2421875 129.4921875 C56.2265625 134.7734375 56.2265625 134.7734375 54 137 C54.02094727 136.21351074 54.04189453 135.42702148 54.06347656 134.61669922 C54.14687753 131.03626402 54.19873776 127.45603358 54.25 123.875 C54.28351562 122.6375 54.31703125 121.4 54.3515625 120.125 C54.52381085 111.24394542 54.52381085 111.24394542 50 104 C49.95101562 105.14855469 49.90203125 106.29710937 49.8515625 107.48046875 C49.45975417 115.84025018 48.89564448 123.96501902 47.3046875 132.203125 C46.96226871 135.34635386 47.39378981 137.90918184 48 141 C48 141.99 48 142.98 48 144 C48.99 143.67 49.98 143.34 51 143 C52.125 146.75 52.125 146.75 51 149 C52.65 148.67 54.3 148.34 56 148 C56 147.34 56 146.68 56 146 C59.465 145.01 59.465 145.01 63 144 C64.09658936 147.28976808 63.79953138 148.71303767 63 152 C66.80989402 153.46534385 69.3241179 152.55203911 73 151 C73.33 150.34 73.66 149.68 74 149 C74.495 151.475 74.495 151.475 75 154 C75.66 154 76.32 154 77 154 C83.94935732 134.14469338 83.93426387 120.27924891 77.73095703 100.40380859 C76.28660026 95.6539299 75.14019613 90.83083096 74 86 C73.34 86 72.68 86 72 86 C72 85.01 72 84.02 72 83 C71.34 83 70.68 83 70 83 C70.18175781 84.07145264 70.18175781 84.07145264 70.3671875 85.16455078 C75.5959544 116.37123939 75.5959544 116.37123939 73 130 C72.67 130 72.34 130 72 130 C71.96036133 129.42894531 71.92072266 128.85789063 71.87988281 128.26953125 C70.98042431 115.76656109 69.62376122 103.48873735 67.32128906 91.16015625 C66.25917484 85.32153968 65.91613171 79.93068649 66 74 C65.67 73.67 65.34 73.34 65 73 C64.87625 73.804375 64.7525 74.60875 64.625 75.4375 C64.41875 76.283125 64.2125 77.12875 64 78 C63.01 78.495 63.01 78.495 62 79 C62.42089996 73.39538469 62.91613111 68.27913453 65 63 C65.99 63 66.98 63 68 63 C68.33 60.69 68.66 58.38 69 56 C69.99 57.32 70.98 58.64 72 60 C71.01 60.495 71.01 60.495 70 61 C72.06976272 74.06537714 76.10790178 86.45863948 80.078125 99.04882812 C89.84399185 130.31201629 89.84399185 130.31201629 83 144 C84.32 144 85.64 144 87 144 C87.495 146.475 87.495 146.475 88 149 C89.32 149.33 90.64 149.66 92 150 C92.495 153.465 92.495 153.465 93 157 C93.66 157 94.32 157 95 157 C95 157.99 95 158.98 95 160 C97.97 160 100.94 160 104 160 C104 159.34 104 158.68 104 158 C105.65 158.66 107.3 159.32 109 160 C109.33 159.34 109.66 158.68 110 158 C111.65 158.66 113.3 159.32 115 160 C115 159.34 115 158.68 115 158 C115.66 158 116.32 158 117 158 C117 158.66 117 159.32 117 160 C119.97 160 122.94 160 126 160 C126 159.34 126 158.68 126 158 C125.01 157.67 124.02 157.34 123 157 C123.66 156.34 124.32 155.68 125 155 C126.98 155.66 128.96 156.32 131 157 C130.01 157.33 129.02 157.66 128 158 C128 158.66 128 159.32 128 160 C128.84304687 159.91621094 129.68609375 159.83242187 130.5546875 159.74609375 C132.19824219 159.59333984 132.19824219 159.59333984 133.875 159.4375 C134.96554688 159.33308594 136.05609375 159.22867188 137.1796875 159.12109375 C140 159 140 159 142 160 C142.33 159.34 142.66 158.68 143 158 C143.33 158.99 143.66 159.98 144 161 C96.48 161 48.96 161 0 161 C0 107.87 0 54.74 0 0 Z " fill="#FAF7F7" transform="translate(0,52)"/>
<path d="M0 0 C4.91018965 0.62882323 9.6017754 1.56376625 14.41015625 2.77734375 C15.82742638 3.12974868 17.24474574 3.48195569 18.66210938 3.83398438 C20.85185545 4.38196863 23.04102148 4.932062 25.22924805 5.48608398 C39.41542648 9.0676393 53.20647414 11.22081559 67.875 11.625 C69.64037109 11.68300781 69.64037109 11.68300781 71.44140625 11.7421875 C74.29413036 11.83495902 77.14687158 11.92083582 80 12 C76.51321064 14.32452624 74.93032429 14.29773734 70.80078125 14.4140625 C68.98803711 14.47207031 68.98803711 14.47207031 67.13867188 14.53125 C65.2447168 14.57765625 65.2447168 14.57765625 63.3125 14.625 C61.40114258 14.68300781 61.40114258 14.68300781 59.45117188 14.7421875 C56.30092708 14.83657686 53.15069009 14.9221583 50 15 C53.29158865 15.05905417 56.58303756 15.09394375 59.875 15.125 C60.7928125 15.14175781 61.710625 15.15851563 62.65625 15.17578125 C68.25142288 15.21518388 73.31350243 14.67376999 78.77197266 13.45849609 C85.440766 12.086154 92.73702682 12.21645637 99 15 C99 15.66 99 16.32 99 17 C99.61875 17.28875 100.2375 17.5775 100.875 17.875 C103 19 103 19 105 21 C104.113125 20.979375 103.22625 20.95875 102.3125 20.9375 C99.37830369 20.99286219 96.84506304 21.3305734 94 22 C95.485 22.495 95.485 22.495 97 23 C97.99 23.99 97.99 23.99 99 25 C99.99 23.515 99.99 23.515 101 22 C101 22.99 101 23.98 101 25 C101.99 25 102.98 25 104 25 C103.67 24.01 103.34 23.02 103 22 C103.99 22.33 104.98 22.66 106 23 C105 26 105 26 102.9375 27.5 C102.298125 27.995 101.65875 28.49 101 29 C101 29.99 101 30.98 101 32 C98.36 32 95.72 32 93 32 C92.505 32.99 92.505 32.99 92 34 C92.66 34 93.32 34 94 34 C94 33.34 94 32.68 94 32 C95.485 32.495 95.485 32.495 97 33 C96.34 33.99 95.68 34.98 95 36 C95.45375 35.505 95.9075 35.01 96.375 34.5 C98 33 98 33 100 33 C100 33.99 100 34.98 100 36 C101.485 36.495 101.485 36.495 103 37 C101.3125 38.0625 101.3125 38.0625 99 39 C98.2575 38.814375 97.515 38.62875 96.75 38.4375 C92.69685178 37.79268097 89.68223574 39.38274014 86 41 C86 40.34 86 39.68 86 39 C86.639375 38.71125 87.27875 38.4225 87.9375 38.125 C90.15206079 37.17176549 90.15206079 37.17176549 91 35 C89.35 34.34 87.7 33.68 86 33 C86.495 34.98 86.495 34.98 87 37 C85.515 37.495 85.515 37.495 84 38 C84 39.32 84 40.64 84 42 C82.02 42 80.04 42 78 42 C78.33 41.01 78.66 40.02 79 39 C79.66 39 80.32 39 81 39 C81 37.68 81 36.36 81 35 C79.02 35.33 77.04 35.66 75 36 C75.33 36.33 75.66 36.66 76 37 C76.66 37 77.32 37 78 37 C78 37.99 78 38.98 78 40 C76.68 40 75.36 40 74 40 C74 40.66 74 41.32 74 42 C72.35492782 42.19406478 70.70890406 42.38007935 69.0625 42.5625 C68.14597656 42.66691406 67.22945313 42.77132812 66.28515625 42.87890625 C65.53105469 42.91886719 64.77695313 42.95882812 64 43 C63.67 42.67 63.34 42.34 63 42 C62.505 42.99 62.505 42.99 62 44 C54.4352739 45.7260361 46.74848876 46.23243101 39.01171875 45.97265625 C37.00142474 45.7660982 37.00142474 45.7660982 36 47 C34.06461065 47.09955104 32.12544231 47.12968668 30.1875 47.125 C28.60001953 47.12886719 28.60001953 47.12886719 26.98046875 47.1328125 C24 47 24 47 22.00390625 46.49609375 C19.22883075 45.80908676 16.60293972 45.90648979 13.75 45.9375 C12.67234375 45.94652344 11.5946875 45.95554688 10.484375 45.96484375 C9.66453125 45.97644531 8.8446875 45.98804688 8 46 C7.505 44.02 7.505 44.02 7 42 C5.515 42.495 5.515 42.495 4 43 C4.66 43.33 5.32 43.66 6 44 C6 44.66 6 45.32 6 46 C3.03 46 0.06 46 -3 46 C-3 45.34 -3 44.68 -3 44 C-3.66 44 -4.32 44 -5 44 C-5 44.66 -5 45.32 -5 46 C-6.258125 46.04125 -7.51625 46.0825 -8.8125 46.125 C-9.52019531 46.14820313 -10.22789063 46.17140625 -10.95703125 46.1953125 C-13 46 -13 46 -16 44 C-16 44.66 -16 45.32 -16 46 C-18.97 46 -21.94 46 -25 46 C-25.33 43.03 -25.66 40.06 -26 37 C-25.195625 36.7525 -24.39125 36.505 -23.5625 36.25 C-20.828919 35.27761141 -20.828919 35.27761141 -20.1875 32.875 C-20.125625 32.25625 -20.06375 31.6375 -20 31 C-18.02 31.33 -16.04 31.66 -14 32 C-13.67 32.99 -13.34 33.98 -13 35 C-9.49705129 36.71567661 -9.49705129 36.71567661 -6 38 C-5.67 37.67 -5.34 37.34 -5 37 C-6.37154504 34.04590299 -7.98863724 31.55991624 -10 29 C-9.67 28.34 -9.34 27.68 -9 27 C-8.39671875 27.71027344 -7.7934375 28.42054688 -7.171875 29.15234375 C-6.37265625 30.07144531 -5.5734375 30.99054688 -4.75 31.9375 C-3.96109375 32.85402344 -3.1721875 33.77054688 -2.359375 34.71484375 C-0.03359596 36.96746087 0.89554641 37.58209279 4 38 C4.66 38.33 5.32 38.66 6 39 C6.495 38.01 6.495 38.01 7 37 C7.99 37.495 7.99 37.495 9 38 C8.67 36.35 8.34 34.7 8 33 C11.46848797 31.80091715 13.59994812 32.21054156 17.0625 33.3125 C17.91972656 33.57675781 18.77695313 33.84101563 19.66015625 34.11328125 C22 35 22 35 25 37 C28.88551199 37.23110009 28.88551199 37.23110009 31.875 35.9375 C35.44542109 34.86637367 37.39209929 35.24835402 41 36 C42.5778125 35.9690625 42.5778125 35.9690625 44.1875 35.9375 C47 36 47 36 50 38 C53.09753379 39.09912489 54.87606705 38.83304879 58 38 C58.66 38.33 59.32 38.66 60 39 C60.495 38.01 60.495 38.01 61 37 C62.65 37.33 64.3 37.66 66 38 C66 37.34 66 36.68 66 36 C67.98 35.67 69.96 35.34 72 35 C72 33.68 72 32.36 72 31 C71.16082031 30.92523438 70.32164062 30.85046875 69.45703125 30.7734375 C44.95597788 28.09486575 19.72713574 19.44104726 1 3 C0.67 2.01 0.34 1.02 0 0 Z " fill="#E6CCC5" transform="translate(120,166)"/>
<path d="M0 0 C6.5111477 1.24300405 12.96188933 2.67348275 19.41015625 4.20825195 C38.44433568 8.72052124 56.46616052 10.45800536 76 11 C72.51321064 13.32452624 70.93032429 13.29773734 66.80078125 13.4140625 C64.98803711 13.47207031 64.98803711 13.47207031 63.13867188 13.53125 C61.2447168 13.57765625 61.2447168 13.57765625 59.3125 13.625 C57.40114258 13.68300781 57.40114258 13.68300781 55.45117188 13.7421875 C52.30092708 13.83657686 49.15069009 13.9221583 46 14 C49.29158865 14.05905417 52.58303756 14.09394375 55.875 14.125 C56.7928125 14.14175781 57.710625 14.15851563 58.65625 14.17578125 C64.25142288 14.21518388 69.31350243 13.67376999 74.77197266 12.45849609 C81.440766 11.086154 88.73702682 11.21645637 95 14 C95 14.66 95 15.32 95 16 C95.61875 16.28875 96.2375 16.5775 96.875 16.875 C99 18 99 18 101 20 C100.113125 19.979375 99.22625 19.95875 98.3125 19.9375 C95.37830369 19.99286219 92.84506304 20.3305734 90 21 C91.485 21.495 91.485 21.495 93 22 C93.99 22.99 93.99 22.99 95 24 C95.99 22.515 95.99 22.515 97 21 C97 21.99 97 22.98 97 24 C97.99 24 98.98 24 100 24 C99.505 22.515 99.505 22.515 99 21 C100.485 21.495 100.485 21.495 102 22 C101 25 101 25 98.9375 26.5 C98.298125 26.995 97.65875 27.49 97 28 C97 28.99 97 29.98 97 31 C45.66861801 27.34873773 45.66861801 27.34873773 24 17 C23.67 16.34 23.34 15.68 23 15 C23.33 14.34 23.66 13.68 24 13 C25.65 13 27.3 13 29 13 C27.74509766 12.58041016 27.74509766 12.58041016 26.46484375 12.15234375 C17.33539437 9.00809263 8.68109864 5.2189653 0 1 C0 0.67 0 0.34 0 0 Z " fill="#9E2F0B" transform="translate(124,167)"/>
<path d="M0 0 C2.54484668 3.81727002 1.96072031 4.99955928 1.171875 9.43359375 C0.83736328 11.3681543 0.83736328 11.3681543 0.49609375 13.34179688 C0.24773928 14.70709377 -0.0009604 16.07232791 -0.25 17.4375 C-0.48419887 18.76738033 -0.7172831 20.09745747 -0.94921875 21.42773438 C-1.40695751 24.04391801 -1.87015703 26.65893844 -2.33618164 29.27368164 C-6.36645589 45.84485762 -6.36645589 45.84485762 -3.3984375 61.74609375 C-1.49975178 64.12613864 -1.49975178 64.12613864 0.56640625 66.1328125 C2 68 2 68 1.83984375 70.1796875 C1 72 1 72 -1 73 C-3.35546875 73.34375 -3.35546875 73.34375 -6.1875 73.5 C-7.10917969 73.5721875 -8.03085938 73.644375 -8.98046875 73.71875 C-12.82932518 72.80259271 -14.91947772 71.64503358 -17.60620117 68.73291016 C-20.59070199 62.88100926 -19.82279647 55.98798632 -19.63793945 49.56616211 C-19.56260657 46.94121334 -19.53550829 44.31926956 -19.51757812 41.69335938 C-19.49498246 40.01298093 -19.46968321 38.3326362 -19.44140625 36.65234375 C-19.42976944 35.87406723 -19.41813263 35.09579071 -19.40614319 34.29393005 C-19.27160502 29.87137628 -18.80465873 26.11495348 -17 22 C-16.24074219 21.54625 -15.48148438 21.0925 -14.69921875 20.625 C-10.76905178 18.25893711 -9.10157435 14.8924653 -6.8125 11 C-5.9440885 9.56245283 -5.07560179 8.12495109 -4.20703125 6.6875 C-3.8303833 6.05199219 -3.45373535 5.41648438 -3.06567383 4.76171875 C-2.08861555 3.1464948 -1.047134 1.57070101 0 0 Z " fill="#902C09" transform="translate(22,133)"/>
<path d="M0 0 C0 0.66 0 1.32 0 2 C0.99 1.67 1.98 1.34 3 1 C7.66666667 1.66666667 7.66666667 1.66666667 9 3 C9.66 3 10.32 3 11 3 C11 3.66 11 4.32 11 5 C12.32 5.33 13.64 5.66 15 6 C15 14.58 15 23.16 15 32 C-11.4 32 -37.8 32 -65 32 C-64.67 31.34 -64.34 30.68 -64 30 C-63.32195312 30.01160156 -62.64390625 30.02320313 -61.9453125 30.03515625 C-56.29723343 30.08991602 -50.80132511 29.88417695 -45.19140625 29.21875 C-43 29 -43 29 -39 29 C-38.34 27.68 -37.68 26.36 -37 25 C-36.34 25.66 -35.68 26.32 -35 27 C-32.31160615 27.26991906 -29.70858064 27.08737357 -27 27 C-27 26.34 -27 25.68 -27 25 C-25.68 25 -24.36 25 -23 25 C-23 24.01 -23 23.02 -23 22 C-24.65 22.33 -26.3 22.66 -28 23 C-26.25 20.9375 -26.25 20.9375 -24 19 C-21.75 19.25 -21.75 19.25 -20 20 C-20 21.32 -20 22.64 -20 24 C-20.66 24 -21.32 24 -22 24 C-22 24.66 -22 25.32 -22 26 C-20.35 26 -18.7 26 -17 26 C-17.495 24.02 -17.495 24.02 -18 22 C-17.01 21.67 -16.02 21.34 -15 21 C-15 20.01 -15 19.02 -15 18 C-13.68 18.33 -12.36 18.66 -11 19 C-11 20.32 -11 21.64 -11 23 C-12.32 23.33 -13.64 23.66 -15 24 C-11.87804141 24.14765314 -11.87804141 24.14765314 -8.5625 22.9375 C-5.30985373 22.08154046 -4.02525902 21.78989639 -1 23 C-1 21.35 -1 19.7 -1 18 C-1.66 18 -2.32 18 -3 18 C-3.495 19.485 -3.495 19.485 -4 21 C-4.66 21 -5.32 21 -6 21 C-5.505 19.515 -5.505 19.515 -5 18 C-5.66 17.67 -6.32 17.34 -7 17 C-7 17.66 -7 18.32 -7 19 C-7.66 19 -8.32 19 -9 19 C-8.505 17.515 -8.505 17.515 -8 16 C-5.36 16 -2.72 16 0 16 C-0.66 15.01 -1.32 14.02 -2 13 C-0.02 12.34 1.96 11.68 4 11 C3.505 9.515 3.505 9.515 3 8 C3 8.66 3 9.32 3 10 C1.68 9.67 0.36 9.34 -1 9 C-1 9.66 -1 10.32 -1 11 C-1.99 10.67 -2.98 10.34 -4 10 C-4 9.34 -4 8.68 -4 8 C-6.31 7.67 -8.62 7.34 -11 7 C-7.06094403 5.85110867 -3.06434042 5.47417305 1 5 C0.01 4.34 -0.98 3.68 -2 3 C-2.66 2.34 -3.32 1.68 -4 1 C-2 0 -2 0 0 0 Z " fill="#FEFDFC" transform="translate(221,181)"/>
<path d="M0 0 C0.66 0.33 1.32 0.66 2 1 C2 1.99 2 2.98 2 4 C-4.5 8 -4.5 8 -9 8 C-9 8.99 -9 9.98 -9 11 C-8.67 10.34 -8.34 9.68 -8 9 C-3.6822542 9.50797009 0.03302114 10.19682779 4 12 C3.34 13.98 2.68 15.96 2 18 C-0.97 18.495 -0.97 18.495 -4 19 C-4.33 18.01 -4.66 17.02 -5 16 C-6.32 16 -7.64 16 -9 16 C-9.33 16.99 -9.66 17.98 -10 19 C-10.99 19.66 -11.98 20.32 -13 21 C-11.68 21.99 -10.36 22.98 -9 24 C-10.25 26 -10.25 26 -12 28 C-13.32 28 -14.64 28 -16 28 C-16.33 27.34 -16.66 26.68 -17 26 C-19.4294516 29.6441774 -19.16179575 31.71241272 -19 36 C-20.98 36 -22.96 36 -25 36 C-25 35.01 -25 34.02 -25 33 C-25.66 33 -26.32 33 -27 33 C-27 31.68 -27 30.36 -27 29 C-27.99 29 -28.98 29 -30 29 C-30 28.34 -30 27.68 -30 27 C-30.99 26.67 -31.98 26.34 -33 26 C-33.33 24.02 -33.66 22.04 -34 20 C-30.535 19.505 -30.535 19.505 -27 19 C-27 19.66 -27 20.32 -27 21 C-26.01 21 -25.02 21 -24 21 C-24 20.34 -24 19.68 -24 19 C-24.61875 18.690625 -25.2375 18.38125 -25.875 18.0625 C-27.25 17.375 -28.625 16.6875 -30 16 C-30.33 16.66 -30.66 17.32 -31 18 C-31.66 18 -32.32 18 -33 18 C-33 17.01 -33 16.02 -33 15 C-33.66 15 -34.32 15 -35 15 C-35 13.02 -35 11.04 -35 9 C-33.68 9 -32.36 9 -31 9 C-30.67 8.34 -30.34 7.68 -30 7 C-29.34 7 -28.68 7 -28 7 C-28 7.99 -28 8.98 -28 10 C-26.68 10 -25.36 10 -24 10 C-24.33 9.01 -24.66 8.02 -25 7 C-25.66 7 -26.32 7 -27 7 C-27 6.34 -27 5.68 -27 5 C-26.01 5 -25.02 5 -24 5 C-24 3.68 -24 2.36 -24 1 C-22.35 1.33 -20.7 1.66 -19 2 C-19 2.66 -19 3.32 -19 4 C-17.68 3.67 -16.36 3.34 -15 3 C-15 2.34 -15 1.68 -15 1 C-12.69 1.33 -10.38 1.66 -8 2 C-8 2.66 -8 3.32 -8 4 C-5.64828869 3.40138258 -3.3140622 2.73075648 -1 2 C-0.67 1.34 -0.34 0.68 0 0 Z " fill="#792813" transform="translate(59,74)"/>
<path d="M0 0 C0.66 0 1.32 0 2 0 C2.33 1.65 2.66 3.3 3 5 C3.33 5 3.66 5 4 5 C4 6.65 4 8.3 4 10 C4.66 10 5.32 10 6 10 C6.33 11.65 6.66 13.3 7 15 C6.01 14.34 5.02 13.68 4 13 C3.63736141 18.8022175 4.74315457 22.63999211 7 28 C9.32978149 23.61948999 9.32978149 23.61948999 9.75 18.875 C9.5025 18.25625 9.255 17.6375 9 17 C8.7525 15.700625 8.7525 15.700625 8.5 14.375 C8.10412687 11.99712092 8.10412687 11.99712092 7 10 C7.9375 7.875 7.9375 7.875 9 6 C9.99 8.64 10.98 11.28 12 14 C14.34973818 12.10244856 14.34973818 12.10244856 14.125 8.875 C14.08375 7.92625 14.0425 6.9775 14 6 C17.66704983 9.29094216 19.23677063 11.16621398 20 16 C20.515625 16.45375 21.03125 16.9075 21.5625 17.375 C23 19 23 19 23.5 22.375 C22.8754761 26.90279826 21.36232058 28.03795568 18 31 C16.70480005 33.16620544 16.70480005 33.16620544 16 35 C10.34979382 34.39891424 5.33835539 32.92471317 0 31 C0.33 30.01 0.66 29.02 1 28 C-0.98 28.99 -0.98 28.99 -3 30 C-3 29.01 -3 28.02 -3 27 C-4.65 27.33 -6.3 27.66 -8 28 C-8 28.66 -8 29.32 -8 30 C-9.98 30 -11.96 30 -14 30 C-14 29.34 -14 28.68 -14 28 C-16.31 27.67 -18.62 27.34 -21 27 C-21.33 28.32 -21.66 29.64 -22 31 C-22 30.34 -22 29.68 -22 29 C-22.66 28.67 -23.32 28.34 -24 28 C-23.34 28 -22.68 28 -22 28 C-22 27.34 -22 26.68 -22 26 C-20.72942818 25.52014033 -19.45853152 25.0411407 -18.1875 24.5625 C-17.47980469 24.29566406 -16.77210937 24.02882813 -16.04296875 23.75390625 C-14.37327604 23.13774814 -12.68842296 22.56280765 -11 22 C-11.226875 21.236875 -11.45375 20.47375 -11.6875 19.6875 C-11.790625 18.800625 -11.89375 17.91375 -12 17 C-10.8125 15.625 -10.8125 15.625 -9 14 C-7.56319062 11.71649938 -6.29603701 9.36861935 -5 7 C-4.34 7 -3.68 7 -3 7 C-2.690625 6.21625 -2.38125 5.4325 -2.0625 4.625 C-1 2 -1 2 0 0 Z " fill="#8A2E0E" transform="translate(72,56)"/>
<path d="M0 0 C2.42701448 2.91837324 4.0378324 6.00533512 5.64990234 9.43066406 C11.32349658 21.47107085 19.28297159 31.30560455 27.8359375 41.40625 C33.40946389 48.08643326 33.40946389 48.08643326 33 53 C32.34 53 31.68 53 31 53 C30.67 52.34 30.34 51.68 30 51 C29.01 51 28.02 51 27 51 C27 50.34 27 49.68 27 49 C26.401875 48.896875 25.80375 48.79375 25.1875 48.6875 C22.69317133 47.90356813 21.81478403 46.81478403 20 45 C19.01 45 18.02 45 17 45 C16.67 45.99 16.34 46.98 16 48 C13.4375 49.1875 13.4375 49.1875 11 50 C11.33 51.98 11.66 53.96 12 56 C11.34 56 10.68 56 10 56 C9.67 53.69 9.34 51.38 9 49 C7.515 49.495 7.515 49.495 6 50 C3.7522025 47.94766315 2.9977758 46.99332739 2 44 C1.34 43.67 0.68 43.34 0 43 C0.144375 42.34515625 0.28875 41.6903125 0.4375 41.015625 C2.72198451 29.78357617 2.4885262 20.31229879 -0.66455078 9.34301758 C-2.09559524 4.28678571 -2.09559524 4.28678571 -1 1 C-0.67 0.67 -0.34 0.34 0 0 Z " fill="#9E300C" transform="translate(83,153)"/>
<path d="M0 0 C8.91 0 17.82 0 27 0 C25.02 2.31 23.04 4.62 21 7 C20.40873679 10.07399467 20.11384677 12.38988108 20.125 15.4375 C20.104375 16.16904297 20.08375 16.90058594 20.0625 17.65429688 C20.01592708 19.43571101 20.00427855 21.21798231 20 23 C20.77859375 23.29648437 21.5571875 23.59296875 22.359375 23.8984375 C25.50386698 25.21019303 26.97261072 26.24854313 29 29 C29.62119527 31.70219942 29.81439571 34.21593567 30 37 C26.90350043 34.02259657 24.21639175 30.85612757 21.5625 27.48828125 C19.70335807 25.71744857 18.53526546 25.29214973 16 25 C15.01 25.33 14.02 25.66 13 26 C12.21625 26.0825 11.4325 26.165 10.625 26.25 C6.91874917 27.30892881 5.40098709 29.01498903 3 32 C2.05995934 34.34041052 1.53520514 36.51859435 1 39 C0.67 39 0.34 39 0 39 C0 26.13 0 13.26 0 0 Z " fill="#FDFCFB" transform="translate(0,0)"/>
<path d="M0 0 C0.99 1.32 1.98 2.64 3 4 C2.01 4.495 2.01 4.495 1 5 C3.06976272 18.06537714 7.10790178 30.45863948 11.078125 43.04882812 C20.84399185 74.31201629 20.84399185 74.31201629 14 88 C15.32 88 16.64 88 18 88 C18.33 89.65 18.66 91.3 19 93 C20.32 93.33 21.64 93.66 23 94 C23.66 97.3 24.32 100.6 25 104 C21.7 103.67 18.4 103.34 15 103 C15 102.01 15 101.02 15 100 C14.34 100 13.68 100 13 100 C13 100.66 13 101.32 13 102 C11.02 101.67 9.04 101.34 7 101 C6.67 100.01 6.34 99.02 6 98 C6.66 98 7.32 98 8 98 C14.94935732 78.14469338 14.93426387 64.27924891 8.73095703 44.40380859 C7.28660026 39.6539299 6.14019613 34.83083096 5 30 C4.34 30 3.68 30 3 30 C3 29.01 3 28.02 3 27 C2.34 27 1.68 27 1 27 C1.12117188 27.71430176 1.24234375 28.42860352 1.3671875 29.16455078 C6.5959544 60.37123939 6.5959544 60.37123939 4 74 C3.67 74 3.34 74 3 74 C2.96036133 73.42894531 2.92072266 72.85789062 2.87988281 72.26953125 C1.98042431 59.76656109 0.62376122 47.48873735 -1.67871094 35.16015625 C-2.74082516 29.32153968 -3.08386829 23.93068649 -3 18 C-3.33 17.67 -3.66 17.34 -4 17 C-4.12375 17.804375 -4.2475 18.60875 -4.375 19.4375 C-4.684375 20.7059375 -4.684375 20.7059375 -5 22 C-5.66 22.33 -6.32 22.66 -7 23 C-6.57910004 17.39538469 -6.08386889 12.27913453 -4 7 C-3.01 7 -2.02 7 -1 7 C-0.67 4.69 -0.34 2.38 0 0 Z " fill="#DFBFB7" transform="translate(69,108)"/>
<path d="M0 0 C0.76441406 0.77859375 1.52882813 1.5571875 2.31640625 2.359375 C4.94142942 5.0509787 4.94142942 5.0509787 7.9375 7.25 C13.69794412 11.97118874 17.62991127 19.02140542 20 26 C20.1875 29.4375 20.1875 29.4375 20 32 C17.87961365 29.38485683 15.86908256 26.80362384 14 24 C13.80664062 25.05960938 13.61328125 26.11921875 13.4140625 27.2109375 C13.15144936 28.59903553 12.88840614 29.98705224 12.625 31.375 C12.43550781 32.42300781 12.43550781 32.42300781 12.2421875 33.4921875 C11.2265625 38.7734375 11.2265625 38.7734375 9 41 C9.02094727 40.21351074 9.04189453 39.42702148 9.06347656 38.61669922 C9.14687753 35.03626402 9.19873776 31.45603358 9.25 27.875 C9.28351562 26.6375 9.31703125 25.4 9.3515625 24.125 C9.52381085 15.24394542 9.52381085 15.24394542 5 8 C4.95101562 9.14855469 4.90203125 10.29710937 4.8515625 11.48046875 C4.45975417 19.84025018 3.89564448 27.96501902 2.3046875 36.203125 C1.96226871 39.34635386 2.39378981 41.90918184 3 45 C3 45.99 3 46.98 3 48 C4.485 47.505 4.485 47.505 6 47 C6.33 48.32 6.66 49.64 7 51 C6.34 51 5.68 51 5 51 C5 51.66 5 52.32 5 53 C4.071875 52.4740625 4.071875 52.4740625 3.125 51.9375 C2.42375 51.628125 1.7225 51.31875 1 51 C0.01 51.495 0.01 51.495 -1 52 C-2.625 51 -2.625 51 -4 49 C-3.1843777 44.40285612 -1.87322155 40.28164925 0 36 C-0.639375 35.71125 -1.27875 35.4225 -1.9375 35.125 C-4 34 -4 34 -5 32 C-6.09650219 20.45539832 -3.71855815 10.85022146 0 0 Z " fill="#F8F2F1" transform="translate(45,148)"/>
<path d="M0 0 C1.32 0 2.64 0 4 0 C4 0.66 4 1.32 4 2 C4.7940625 2.2475 5.588125 2.495 6.40625 2.75 C11.71961101 4.59812557 16.8442662 6.86005827 22.01171875 9.078125 C26.29631572 10.90367665 30.54768404 12.61226516 35 14 C31.98968256 14.93423645 31.13349732 15.04449911 28 14 C28 14.99 28 15.98 28 17 C48.87083465 25.81482276 70.57580514 28.82554903 93 31 C92.67 31.99 92.34 32.98 92 34 C92.66 34 93.32 34 94 34 C94 33.34 94 32.68 94 32 C95.485 32.495 95.485 32.495 97 33 C96.34 33.99 95.68 34.98 95 36 C95.45375 35.505 95.9075 35.01 96.375 34.5 C98 33 98 33 100 33 C100 33.99 100 34.98 100 36 C101.485 36.495 101.485 36.495 103 37 C101.3125 38.0625 101.3125 38.0625 99 39 C98.2575 38.814375 97.515 38.62875 96.75 38.4375 C92.69685178 37.79268097 89.68223574 39.38274014 86 41 C86 40.34 86 39.68 86 39 C86.639375 38.71125 87.27875 38.4225 87.9375 38.125 C90.15206079 37.17176549 90.15206079 37.17176549 91 35 C89.35 34.34 87.7 33.68 86 33 C86.495 34.98 86.495 34.98 87 37 C85.515 37.495 85.515 37.495 84 38 C84 39.32 84 40.64 84 42 C82.02 42 80.04 42 78 42 C78.33 41.01 78.66 40.02 79 39 C79.66 39 80.32 39 81 39 C81 37.68 81 36.36 81 35 C79.02 35.33 77.04 35.66 75 36 C75.33 36.33 75.66 36.66 76 37 C76.66 37 77.32 37 78 37 C78 37.99 78 38.98 78 40 C76.68 40 75.36 40 74 40 C74 40.66 74 41.32 74 42 C69.05 42.495 69.05 42.495 64 43 C64.33 42.01 64.66 41.02 65 40 C67.31 40 69.62 40 72 40 C71.814375 39.2575 71.62875 38.515 71.4375 37.75 C71.0013083 35.00822361 71.24797558 33.60701799 72 31 C71.16082031 30.92523438 70.32164062 30.85046875 69.45703125 30.7734375 C44.95597788 28.09486575 19.72713574 19.44104726 1 3 C0.67 2.01 0.34 1.02 0 0 Z " fill="#E5CBC5" transform="translate(120,166)"/>
<path d="M0 0 C2.55571918 2.55571918 5.09816736 5.10535034 7.5625 7.75 C9.99168976 9.99232901 10.832567 10.61606873 14 11 C14.99 11.226875 15.98 11.45375 17 11.6875 C20.17882263 12.01862736 21.37500427 11.71634336 24 10 C23 13 23 13 21 16 C18.69 15.67 16.38 15.34 14 15 C14.66 16.32 15.32 17.64 16 19 C13.03 19 10.06 19 7 19 C7 18.34 7 17.68 7 17 C6.34 17 5.68 17 5 17 C5 17.66 5 18.32 5 19 C3.741875 19.04125 2.48375 19.0825 1.1875 19.125 C0.47980469 19.14820313 -0.22789063 19.17140625 -0.95703125 19.1953125 C-3 19 -3 19 -6 17 C-6 17.66 -6 18.32 -6 19 C-8.97 19 -11.94 19 -15 19 C-15.33 16.03 -15.66 13.06 -16 10 C-15.195625 9.7525 -14.39125 9.505 -13.5625 9.25 C-10.828919 8.27761141 -10.828919 8.27761141 -10.1875 5.875 C-10.125625 5.25625 -10.06375 4.6375 -10 4 C-7.03 4.495 -7.03 4.495 -4 5 C-3.67 5.99 -3.34 6.98 -3 8 C0.50294871 9.71567661 0.50294871 9.71567661 4 11 C4.33 10.67 4.66 10.34 5 10 C3.95460281 7.74837528 2.88843583 5.85410839 1.375 3.875 C0 2 0 2 0 0 Z " fill="#C58878" transform="translate(110,193)"/>
<path d="M0 0 C0.66 0 1.32 0 2 0 C2.33 0.66 2.66 1.32 3 2 C4.64363134 2.72159424 6.31050386 3.39351421 8 4 C8.042721 5.66611905 8.04063832 7.33382885 8 9 C7.67 9.33 7.34 9.66 7 10 C8.32 10.99 9.64 11.98 11 13 C9.75 15 9.75 15 8 17 C6.68 17 5.36 17 4 17 C3.67 16.34 3.34 15.68 3 15 C0.5705484 18.6441774 0.83820425 20.71241272 1 25 C-0.98 25 -2.96 25 -5 25 C-5 24.01 -5 23.02 -5 22 C-5.66 22 -6.32 22 -7 22 C-7 20.68 -7 19.36 -7 18 C-7.99 18 -8.98 18 -10 18 C-10 17.34 -10 16.68 -10 16 C-10.99 15.67 -11.98 15.34 -13 15 C-13.33 13.02 -13.66 11.04 -14 9 C-10.535 8.505 -10.535 8.505 -7 8 C-7 8.66 -7 9.32 -7 10 C-6.01 10 -5.02 10 -4 10 C-4 9.34 -4 8.68 -4 8 C-3.34 8 -2.68 8 -2 8 C-2.33 6.35 -2.66 4.7 -3 3 C-2.34 3 -1.68 3 -1 3 C-0.67 2.01 -0.34 1.02 0 0 Z " fill="#7F2B0E" transform="translate(39,85)"/>
<path d="M0 0 C2.46278801 2.46278801 2.99771255 4.70676982 4 8 C6.34973818 6.10244856 6.34973818 6.10244856 6.125 2.875 C6.08375 1.92625 6.0425 0.9775 6 0 C9.66704983 3.29094216 11.23677063 5.16621398 12 10 C12.515625 10.45375 13.03125 10.9075 13.5625 11.375 C15 13 15 13 15.5 16.375 C14.8754761 20.90279826 13.36232058 22.03795568 10 25 C8.70480005 27.16620544 8.70480005 27.16620544 8 29 C5.6875 29.1875 5.6875 29.1875 3 29 C1.375 27.5625 1.375 27.5625 0 26 C-0.99 25.67 -1.98 25.34 -3 25 C-4.1875 22.9375 -4.1875 22.9375 -5 21 C-3.68 21.33 -2.36 21.66 -1 22 C1.32978149 17.61948999 1.32978149 17.61948999 1.75 12.875 C1.5025 12.25625 1.255 11.6375 1 11 C0.835 10.13375 0.67 9.2675 0.5 8.375 C0.10412687 5.99712092 0.10412687 5.99712092 -1 4 C-0.5625 1.875 -0.5625 1.875 0 0 Z " fill="#B86D59" transform="translate(80,62)"/>
<path d="M0 0 C0.99 1.32 1.98 2.64 3 4 C2.01 4.495 2.01 4.495 1 5 C1.13277344 5.85722656 1.26554687 6.71445313 1.40234375 7.59765625 C3.0197979 18.06978639 3.0197979 18.06978639 3.5625 22 C3.95504045 24.69170591 4.43567428 27.33960732 5 30 C4.34 30 3.68 30 3 30 C3 29.01 3 28.02 3 27 C2.34 27 1.68 27 1 27 C1.12117188 27.71430176 1.24234375 28.42860352 1.3671875 29.16455078 C6.5959544 60.37123939 6.5959544 60.37123939 4 74 C3.67 74 3.34 74 3 74 C2.96036133 73.42894531 2.92072266 72.85789062 2.87988281 72.26953125 C1.98042431 59.76656109 0.62376122 47.48873735 -1.67871094 35.16015625 C-2.74082516 29.32153968 -3.08386829 23.93068649 -3 18 C-3.33 17.67 -3.66 17.34 -4 17 C-4.12375 17.804375 -4.2475 18.60875 -4.375 19.4375 C-4.684375 20.7059375 -4.684375 20.7059375 -5 22 C-5.66 22.33 -6.32 22.66 -7 23 C-6.57910004 17.39538469 -6.08386889 12.27913453 -4 7 C-3.01 7 -2.02 7 -1 7 C-0.67 4.69 -0.34 2.38 0 0 Z " fill="#A03311" transform="translate(69,108)"/>
<path d="M0 0 C0 0.66 0 1.32 0 2 C0.99 1.67 1.98 1.34 3 1 C7.66666667 1.66666667 7.66666667 1.66666667 9 3 C9.66 3 10.32 3 11 3 C11 3.66 11 4.32 11 5 C11.99 5 12.98 5 14 5 C14.18160101 8.99522228 14.13013062 11.591791 12 15 C10.0546875 16.703125 10.0546875 16.703125 7.875 18.25 C7.15054688 18.77078125 6.42609375 19.2915625 5.6796875 19.828125 C5.12539062 20.21484375 4.57109375 20.6015625 4 21 C3.67 20.01 3.34 19.02 3 18 C3.66 18 4.32 18 5 18 C5 17.34 5 16.68 5 16 C4.21625 15.87625 3.4325 15.7525 2.625 15.625 C0 15 0 15 -2 13 C-0.02 12.34 1.96 11.68 4 11 C3.67 10.01 3.34 9.02 3 8 C3 8.66 3 9.32 3 10 C1.68 9.67 0.36 9.34 -1 9 C-1 9.66 -1 10.32 -1 11 C-1.99 10.67 -2.98 10.34 -4 10 C-4 9.34 -4 8.68 -4 8 C-6.31 7.67 -8.62 7.34 -11 7 C-7.06094403 5.85110867 -3.06434042 5.47417305 1 5 C0.01 4.34 -0.98 3.68 -2 3 C-2.66 2.34 -3.32 1.68 -4 1 C-2 0 -2 0 0 0 Z " fill="#D1A194" transform="translate(221,181)"/>
<path d="M0 0 C1.09658936 3.28976808 0.79953138 4.71303767 0 8 C3.80989402 9.46534385 6.3241179 8.55203911 10 7 C10.33 6.34 10.66 5.68 11 5 C11.33 7.64 11.66 10.28 12 13 C11.34 13 10.68 13 10 13 C10 11.68 10 10.36 10 9 C9.34 9 8.68 9 8 9 C8.65585189 12.60992379 8.65585189 12.60992379 10 16 C8.04196493 16.05389087 6.08351091 16.09274217 4.125 16.125 C2.48917969 16.15980469 2.48917969 16.15980469 0.8203125 16.1953125 C-2 16 -2 16 -4 14 C-4.99 14.495 -4.99 14.495 -6 15 C-6 14.34 -6 13.68 -6 13 C-6.66 13 -7.32 13 -8 13 C-8 12.01 -8 11.02 -8 10 C-9.65 10 -11.3 10 -13 10 C-12.67 9.34 -12.34 8.68 -12 8 C-11.34 8.33 -10.68 8.66 -10 9 C-9.67 7.68 -9.34 6.36 -9 5 C-8.01 5 -7.02 5 -6 5 C-6.33 4.01 -6.66 3.02 -7 2 C-2.25 0 -2.25 0 0 0 Z " fill="#D09D93" transform="translate(63,196)"/>
<path d="M0 0 C2.31 0.33 4.62 0.66 7 1 C7.33 1.99 7.66 2.98 8 4 C11.00847418 5.22520264 11.00847418 5.22520264 14 6 C13.67 6.99 13.34 7.98 13 9 C12.34 8.67 11.68 8.34 11 8 C11.33 8.99 11.66 9.98 12 11 C11.34 11 10.68 11 10 11 C10 10.01 10 9.02 10 8 C6.5084773 10.25259529 6.07356469 10.70574125 5 15 C2.03 15 -0.94 15 -4 15 C-4.33 12.03 -4.66 9.06 -5 6 C-3.35 5.34 -1.7 4.68 0 4 C0 2.68 0 1.36 0 0 Z " fill="#D7AEA1" transform="translate(99,197)"/>
<path d="M0 0 C0.66 0.33 1.32 0.66 2 1 C2 1.99 2 2.98 2 4 C-4.5 8 -4.5 8 -9 8 C-9 8.66 -9 9.32 -9 10 C-10.98 10.33 -12.96 10.66 -15 11 C-15.33 9.35 -15.66 7.7 -16 6 C-16.66 6 -17.32 6 -18 6 C-18 7.32 -18 8.64 -18 10 C-20.31 9.67 -22.62 9.34 -25 9 C-25 8.34 -25 7.68 -25 7 C-25.66 7 -26.32 7 -27 7 C-27 6.34 -27 5.68 -27 5 C-26.01 5 -25.02 5 -24 5 C-24 3.68 -24 2.36 -24 1 C-22.35 1.33 -20.7 1.66 -19 2 C-19 2.66 -19 3.32 -19 4 C-17.68 3.67 -16.36 3.34 -15 3 C-15 2.34 -15 1.68 -15 1 C-12.69 1.33 -10.38 1.66 -8 2 C-8 2.66 -8 3.32 -8 4 C-5.64828869 3.40138258 -3.3140622 2.73075648 -1 2 C-0.67 1.34 -0.34 0.68 0 0 Z " fill="#EDE4E2" transform="translate(59,74)"/>
<path d="M0 0 C0.66 0 1.32 0 2 0 C2.33 2.97 2.66 5.94 3 9 C3.99 9 4.98 9 6 9 C5.95875 10.2375 5.9175 11.475 5.875 12.75 C5.86329764 16.06176648 6.23675298 18.1347236 8 21 C8 21.66 8 22.32 8 23 C8.20625 23.639375 8.4125 24.27875 8.625 24.9375 C9 27 9 27 7 30 C6.61500109 31.65549531 6.27206865 33.3222433 6 35 C2.85863462 32.42979196 1.94123141 29.90973045 1 26 C0.84758971 22.99112597 0.87962017 20.00949576 1 17 C2.485 17.99 2.485 17.99 4 19 C4 18.01 4 17.02 4 16 C3.34 16 2.68 16 2 16 C-0.14336161 12.5233662 -0.21277626 9.78770805 -0.125 5.75 C-0.10695313 4.67234375 -0.08890625 3.5946875 -0.0703125 2.484375 C-0.04710938 1.66453125 -0.02390625 0.8446875 0 0 Z " fill="#DCB9B0" transform="translate(74,50)"/>
<path d="M0 0 C1.32 0 2.64 0 4 0 C4 0.66 4 1.32 4 2 C4.7940625 2.2475 5.588125 2.495 6.40625 2.75 C11.71961101 4.59812557 16.8442662 6.86005827 22.01171875 9.078125 C26.29631572 10.90367665 30.54768404 12.61226516 35 14 C31.98968256 14.93423645 31.13349732 15.04449911 28 14 C27.67 14.99 27.34 15.98 27 17 C22.90076522 15.80022397 19.44589491 14.19253695 15.78515625 11.99609375 C13.76981785 10.81919613 13.76981785 10.81919613 10.5 9.625 C6.4003487 7.72159047 3.06179608 5.34098721 0 2 C0 1.34 0 0.68 0 0 Z " fill="#C48270" transform="translate(120,166)"/>
<path d="M0 0 C1.87389635 2.81084452 2.40594496 4.15876081 3.03515625 7.3515625 C3.20466797 8.20363281 3.37417969 9.05570313 3.54882812 9.93359375 C3.71833984 10.82175781 3.88785156 11.70992187 4.0625 12.625 C4.23587891 13.48996094 4.40925781 14.35492188 4.58789062 15.24609375 C7.01160886 27.63398695 8.38237629 40.49252447 6 53 C5.67 53 5.34 53 5 53 C4.95512451 52.40276123 4.91024902 51.80552246 4.86401367 51.19018555 C3.9922666 39.8357614 2.90120601 28.63159402 0.97216797 17.40576172 C0.00274094 11.5727686 -0.35900297 5.91690073 0 0 Z " fill="#F6EEEC" transform="translate(67,129)"/>
<path d="M0 0 C0.33 0 0.66 0 1 0 C1.12117188 0.80824219 1.24234375 1.61648437 1.3671875 2.44921875 C1.53476563 3.51785156 1.70234375 4.58648437 1.875 5.6875 C2.11863281 7.27111328 2.11863281 7.27111328 2.3671875 8.88671875 C2.8930193 11.9908352 2.8930193 11.9908352 4.1328125 14.70703125 C5 17 5 17 4 20 C1.7522025 17.94766315 0.9977758 16.99332739 0 14 C-0.99 14.33 -1.98 14.66 -3 15 C-5.4375 13.6875 -5.4375 13.6875 -8 12 C-9.32608822 11.31903578 -10.65686601 10.64669414 -12 10 C-12 9.01 -12 8.02 -12 7 C-11.0925 6.566875 -10.185 6.13375 -9.25 5.6875 C-6.56781551 4.29482729 -4.33860395 2.88887243 -2 1 C-1.67 2.32 -1.34 3.64 -1 5 C-0.67 3.35 -0.34 1.7 0 0 Z " fill="#A77464" transform="translate(76,34)"/>
<path d="M0 0 C0.66 0 1.32 0 2 0 C2.33 0.66 2.66 1.32 3 2 C4.64363134 2.72159424 6.31050386 3.39351421 8 4 C8.042721 5.66611905 8.04063832 7.33382885 8 9 C7.67 9.33 7.34 9.66 7 10 C8.32 10.99 9.64 11.98 11 13 C9.75 15 9.75 15 8 17 C6.68 17 5.36 17 4 17 C3.67 15.02 3.34 13.04 3 11 C0.69 10.67 -1.62 10.34 -4 10 C-4 9.34 -4 8.68 -4 8 C-3.34 8 -2.68 8 -2 8 C-2.33 6.35 -2.66 4.7 -3 3 C-2.34 3 -1.68 3 -1 3 C-0.67 2.01 -0.34 1.02 0 0 Z " fill="#F6F1F0" transform="translate(39,85)"/>
<path d="M0 0 C3.66704983 3.29094216 5.23677063 5.16621398 6 10 C6.515625 10.45375 7.03125 10.9075 7.5625 11.375 C9 13 9 13 9.5 16.375 C8.88422065 20.83940026 7.4113289 22.18565365 4 25 C3.67 24.34 3.34 23.68 3 23 C3.9375 20.375 3.9375 20.375 5 18 C4.01 17.67 3.02 17.34 2 17 C1.64587656 15.67203709 1.31478446 14.33783393 1 13 C-0.47890069 11.26973898 -0.47890069 11.26973898 -2 10 C-1.67 9.46375 -1.34 8.9275 -1 8.375 C0.22699204 5.4608939 0.14233286 3.13132292 0 0 Z " fill="#BE7A67" transform="translate(86,62)"/>
<path d="M0 0 C2.64 0.33 5.28 0.66 8 1 C7.67 1.99 7.34 2.98 7 4 C7.66 4 8.32 4 9 4 C9 3.34 9 2.68 9 2 C9.99 2.33 10.98 2.66 12 3 C11.01 4.485 11.01 4.485 10 6 C10.45375 5.505 10.9075 5.01 11.375 4.5 C13 3 13 3 15 3 C15 3.99 15 4.98 15 6 C15.99 6.33 16.98 6.66 18 7 C16.3125 8.0625 16.3125 8.0625 14 9 C13.2575 8.814375 12.515 8.62875 11.75 8.4375 C7.69685178 7.79268097 4.68223574 9.38274014 1 11 C1 10.34 1 9.68 1 9 C1.639375 8.71125 2.27875 8.4225 2.9375 8.125 C5.15206079 7.17176549 5.15206079 7.17176549 6 5 C3.525 4.01 3.525 4.01 1 3 C1.33 4.32 1.66 5.64 2 7 C1.01 7.33 0.02 7.66 -1 8 C-1 9.32 -1 10.64 -1 12 C-2.98 12 -4.96 12 -7 12 C-6.67 11.01 -6.34 10.02 -6 9 C-5.34 9 -4.68 9 -4 9 C-4 7.68 -4 6.36 -4 5 C-3.01 5 -2.02 5 -1 5 C-1 4.34 -1 3.68 -1 3 C-1.66 2.67 -2.32 2.34 -3 2 C-2.01 2 -1.02 2 0 2 C0 1.34 0 0.68 0 0 Z " fill="#DBB5AB" transform="translate(205,196)"/>
<path d="M0 0 C2.41033493 0.88285524 4.67202664 1.90727781 7 3 C7 3.66 7 4.32 7 5 C6.01 5 5.02 5 4 5 C3.67 5.66 3.34 6.32 3 7 C2.01 7.495 2.01 7.495 1 8 C1 7.34 1 6.68 1 6 C0.01 6.495 0.01 6.495 -1 7 C-1.65213292 9.02463255 -1.65213292 9.02463255 -2 11 C-3.32 11 -4.64 11 -6 11 C-6 10.34 -6 9.68 -6 9 C-6.66 8.67 -7.32 8.34 -8 8 C-7.01 8 -6.02 8 -5 8 C-4.67 7.01 -4.34 6.02 -4 5 C-4.66 5 -5.32 5 -6 5 C-6.33 5.66 -6.66 6.32 -7 7 C-8.32 6.67 -9.64 6.34 -11 6 C-10.67 5.34 -10.34 4.68 -10 4 C-9.34 4.33 -8.68 4.66 -8 5 C-8.33 3.35 -8.66 1.7 -9 0 C-5.84547687 -1.57726156 -3.40515834 -0.66986721 0 0 Z " fill="#EEDCD7" transform="translate(137,199)"/>
<path d="M0 0 C2.05222467 2.65377743 3.85303541 5.33480141 5.53125 8.23828125 C11.8065633 18.96622038 18.41850649 29.15002812 26 39 C25.67 39.66 25.34 40.32 25 41 C15.60673641 31.35715694 0 14.24733519 0 0 Z " fill="#F6EEED" transform="translate(84,152)"/>
<path d="M0 0 C0.99 0 1.98 0 3 0 C1 2 1 2 -2 3 C-1.34 3 -0.68 3 0 3 C-0.33 4.32 -0.66 5.64 -1 7 C-2.299375 6.835 -3.59875 6.67 -4.9375 6.5 C-9.65419287 5.9684362 -14.25638935 5.92470459 -19 6 C-19 5.34 -19 4.68 -19 4 C-15.535 3.505 -15.535 3.505 -12 3 C-11.67 1.68 -11.34 0.36 -11 -1 C-6.54242423 -2.08427519 -4.33080349 -1.44360116 0 0 Z " fill="#C88E7D" transform="translate(147,206)"/>
<path d="M0 0 C4.0990473 1.61034001 6.76175681 4.57836168 9.75 7.6875 C13.67722108 11.69486845 17.63636858 15.55791551 21.91015625 19.19921875 C24.65228794 21.56206494 27.32581134 23.99850335 30 26.4375 C30.94875 27.30246094 31.8975 28.16742188 32.875 29.05859375 C33.57625 29.69925781 34.2775 30.33992188 35 31 C30.68279856 31 28.63919736 28.42289706 25.5625 25.6875 C24.94503906 25.14641602 24.32757813 24.60533203 23.69140625 24.04785156 C21.78728204 22.37296361 19.89365059 20.68671048 18 19 C16.87376347 18.01164405 15.74746469 17.02335902 14.62109375 16.03515625 C9.08754758 11.12646128 4.06251137 6.21849329 0 0 Z " fill="#EAD5D0" transform="translate(94,151)"/>
<path d="M0 0 C0.268125 0.639375 0.53625 1.27875 0.8125 1.9375 C1.88667752 4.33131686 1.88667752 4.33131686 5 5 C8.22800374 8.97292768 9.43753233 13.92082035 9 19 C7.48876953 20.63037109 7.48876953 20.63037109 6 22 C4.99018911 19.27411167 3.99196692 16.54487736 3 13.8125 C2.71382813 13.04357422 2.42765625 12.27464844 2.1328125 11.48242188 C0.71215062 7.54177643 -0.40963365 4.25848319 0 0 Z " fill="#F3EBE8" transform="translate(78,50)"/>
<path d="M0 0 C4.3177458 0.50797009 8.03302114 1.19682779 12 3 C11.34 4.98 10.68 6.96 10 9 C8.02 9.33 6.04 9.66 4 10 C3.67 9.01 3.34 8.02 3 7 C2.01 7 1.02 7 0 7 C0 4.69 0 2.38 0 0 Z " fill="#B88474" transform="translate(51,83)"/>
<path d="M0 0 C0.99 0.33 1.98 0.66 3 1 C2.360625 1.78375 1.72125 2.5675 1.0625 3.375 C-0.98142313 5.79539281 -0.98142313 5.79539281 -2 8 C-1.01 8 -0.02 8 1 8 C1 9.32 1 10.64 1 12 C-1.64 12 -4.28 12 -7 12 C-6.67 10.68 -6.34 9.36 -6 8 C-6.99 8.33 -7.98 8.66 -9 9 C-8.67 8.01 -8.34 7.02 -8 6 C-7.67 6 -7.34 6 -7 6 C-8.32 5.34 -9.64 4.68 -11 4 C-9.25 2.4375 -9.25 2.4375 -7 1 C-4.9375 1.4375 -4.9375 1.4375 -3 2 C-2.01 1.34 -1.02 0.68 0 0 Z " fill="#EBD6D1" transform="translate(153,201)"/>
<path d="M0 0 C2.1519437 3.22791555 2.20086443 4.28400809 2 8 C1.34 8 0.68 8 0 8 C0 6.68 0 5.36 0 4 C-0.66 4 -1.32 4 -2 4 C-1.34414811 7.60992379 -1.34414811 7.60992379 0 11 C-3.96 11 -7.92 11 -12 11 C-12.66 9.35 -13.32 7.7 -14 6 C-11.525 6.495 -11.525 6.495 -9 7 C-9 7.66 -9 8.32 -9 9 C-8.62875 8.21625 -8.2575 7.4325 -7.875 6.625 C-5.56693694 3.39371171 -3.78383679 2.92493788 0 2 C0 1.34 0 0.68 0 0 Z " fill="#E7D0CA" transform="translate(73,201)"/>
<path d="M0 0 C0.33 1.65 0.66 3.3 1 5 C-5.75 6.125 -5.75 6.125 -8 5 C-8.33 6.32 -8.66 7.64 -9 9 C-11.97 8.505 -11.97 8.505 -15 8 C-15 7.34 -15 6.68 -15 6 C-16.32 6.33 -17.64 6.66 -19 7 C-19.33 6.34 -19.66 5.68 -20 5 C-13.25 2.875 -13.25 2.875 -11 4 C-10.67 3.34 -10.34 2.68 -10 2 C-8.35 2.33 -6.7 2.66 -5 3 C-5 2.34 -5 1.68 -5 1 C-2 0 -2 0 0 0 Z " fill="#D2A496" transform="translate(191,201)"/>
<path d="M0 0 C2.31 0.33 4.62 0.66 7 1 C7.33 2.65 7.66 4.3 8 6 C6.02 7.32 4.04 8.64 2 10 C1.67 8.68 1.34 7.36 1 6 C1 7.98 1 9.96 1 12 C-1.5 10.625 -1.5 10.625 -4 9 C-4 8.34 -4 7.68 -4 7 C-3.34 7 -2.68 7 -2 7 C-2 6.01 -2 5.02 -2 4 C-1.34 4 -0.68 4 0 4 C0 2.68 0 1.36 0 0 Z " fill="#DEBCB4" transform="translate(99,197)"/>
<path d="M0 0 C0.66 0.33 1.32 0.66 2 1 C2 1.99 2 2.98 2 4 C-4.5 8 -4.5 8 -9 8 C-9 8.66 -9 9.32 -9 10 C-10.98 10.33 -12.96 10.66 -15 11 C-14.67 9.68 -14.34 8.36 -14 7 C-13.01 7 -12.02 7 -11 7 C-11.33 5.68 -11.66 4.36 -12 3 C-10.68 2.67 -9.36 2.34 -8 2 C-8 2.66 -8 3.32 -8 4 C-5.64828869 3.40138258 -3.3140622 2.73075648 -1 2 C-0.67 1.34 -0.34 0.68 0 0 Z " fill="#F9F6F5" transform="translate(59,74)"/>
<path d="M0 0 C2.21846272 2.21846272 2.53874597 3.41367691 3.375 6.375 C4.57931675 10.22263762 5.90239853 12.3296539 9 15 C9 15.66 9 16.32 9 17 C9.66 17.33 10.32 17.66 11 18 C10.34 20.97 9.68 23.94 9 27 C8.01 26.67 7.02 26.34 6 26 C6.61277612 23.03824877 7.25372522 21.61941217 9 19 C8.34 19 7.68 19 7 19 C6.34 18.01 5.68 17.02 5 16 C4.34 16 3.68 16 3 16 C1.57459736 12.67406051 0.67139575 9.5488061 0 6 C-0.33 5.34 -0.66 4.68 -1 4 C-0.5625 1.875 -0.5625 1.875 0 0 Z " fill="#AE604A" transform="translate(80,62)"/>
<path d="M0 0 C0 3 0 3 -2 6 C-4.31 5.67 -6.62 5.34 -9 5 C-8.34 6.32 -7.68 7.64 -7 9 C-9.97 9 -12.94 9 -16 9 C-16 8.34 -16 7.68 -16 7 C-16.66 7 -17.32 7 -18 7 C-17 4 -17 4 -14.9375 2.8125 C-14.298125 2.544375 -13.65875 2.27625 -13 2 C-12.67 2.99 -12.34 3.98 -12 5 C-11.62875 4.505 -11.2575 4.01 -10.875 3.5 C-8.25831209 1.40664967 -6.27727029 1.93172354 -3 2 C-2.01 1.34 -1.02 0.68 0 0 Z " fill="#C99181" transform="translate(133,203)"/>
<path d="M0 0 C0.66 0 1.32 0 2 0 C2 0.99 2 1.98 2 3 C2.99 3 3.98 3 5 3 C4.67 5.64 4.34 8.28 4 11 C2.68 10.34 1.36 9.68 0 9 C-0.33 9.66 -0.66 10.32 -1 11 C-1.66 11 -2.32 11 -3 11 C-3 10.01 -3 9.02 -3 8 C-3.66 8 -4.32 8 -5 8 C-5 6.02 -5 4.04 -5 2 C-3.68 2 -2.36 2 -1 2 C-0.67 1.34 -0.34 0.68 0 0 Z " fill="#E9E0DE" transform="translate(29,81)"/>
<path d="M0 0 C0 1.98 0 3.96 0 6 C0.99 5.67 1.98 5.34 3 5 C3.33 6.32 3.66 7.64 4 9 C3.34 9 2.68 9 2 9 C2 9.66 2 10.32 2 11 C1.38125 10.649375 0.7625 10.29875 0.125 9.9375 C-0.57625 9.628125 -1.2775 9.31875 -2 9 C-2.99 9.495 -2.99 9.495 -4 10 C-5.5625 8.875 -5.5625 8.875 -7 7 C-6.6875 3.8125 -6.6875 3.8125 -6 1 C-3 0 -3 0 0 0 Z " fill="#D5AA9E" transform="translate(48,190)"/>
<path d="M0 0 C0.99 0 1.98 0 3 0 C3 0.99 3 1.98 3 3 C5.97 3.495 5.97 3.495 9 4 C8.67 4.99 8.34 5.98 8 7 C5.75215576 7.24942657 3.50152494 7.47383488 1.25 7.6875 C-0.00296875 7.81511719 -1.2559375 7.94273437 -2.546875 8.07421875 C-6.23931642 7.99485632 -7.41596392 7.53835868 -10 5 C-8.35 4.34 -6.7 3.68 -5 3 C-4.67 3.66 -4.34 4.32 -4 5 C-2.29159719 3.36587557 -1.06546953 2.13093906 0 0 Z " fill="#D9B2A7" transform="translate(170,204)"/>
<path d="M0 0 C3.50778211 4.20933853 7 9.4255442 7 15 C6.34 15 5.68 15 5 15 C5 15.66 5 16.32 5 17 C4.34 17 3.68 17 3 17 C2.29753005 15.1096624 1.61359151 13.21243172 0.9375 11.3125 C0.55464844 10.25675781 0.17179687 9.20101562 -0.22265625 8.11328125 C-1.0233052 4.90666208 -0.9237249 3.1313693 0 0 Z " fill="#9E2E0C" transform="translate(77,136)"/>
<path d="M0 0 C0.66 0 1.32 0 2 0 C2.33 2.97 2.66 5.94 3 9 C3.99 9 4.98 9 6 9 C6 12.66666667 6 16.33333333 6 20 C5.34 19.67 4.68 19.34 4 19 C4 18.01 4 17.02 4 16 C3.34 16 2.68 16 2 16 C-0.14336161 12.5233662 -0.21277626 9.78770805 -0.125 5.75 C-0.10695313 4.67234375 -0.08890625 3.5946875 -0.0703125 2.484375 C-0.04710938 1.66453125 -0.02390625 0.8446875 0 0 Z " fill="#E8D8D4" transform="translate(74,50)"/>
<path d="M0 0 C1.32 0 2.64 0 4 0 C4.66 3.3 5.32 6.6 6 10 C2.7 9.67 -0.6 9.34 -4 9 C-3.67 7.35 -3.34 5.7 -3 4 C-1 5 -1 5 0 7 C0.33 6.01 0.66 5.02 1 4 C-0.32 3.34 -1.64 2.68 -3 2 C-2.01 2 -1.02 2 0 2 C0 1.34 0 0.68 0 0 Z " fill="#CA9282" transform="translate(88,202)"/>
<path d="M0 0 C3.875 1.75 3.875 1.75 5 4 C4.01 4.66 3.02 5.32 2 6 C3.32 6 4.64 6 6 6 C6 6.99 6 7.98 6 9 C4.68 9 3.36 9 2 9 C2 9.66 2 10.32 2 11 C-1.3 11.33 -4.6 11.66 -8 12 C-7.67 11.01 -7.34 10.02 -7 9 C-4.69 9 -2.38 9 0 9 C-0.185625 8.2575 -0.37125 7.515 -0.5625 6.75 C-0.99203108 4.05009037 -0.85122974 2.55368923 0 0 Z " fill="#D09F91" transform="translate(192,197)"/>
<path d="M0 0 C-0.33 1.32 -0.66 2.64 -1 4 C-0.01 4.33 0.98 4.66 2 5 C1.00102287 7.99693138 0.34869747 9.02709413 -2 11 C-2.66 11 -3.32 11 -4 11 C-4.33 10.01 -4.66 9.02 -5 8 C-5.99 7.67 -6.98 7.34 -8 7 C-3.53191489 0 -3.53191489 0 0 0 Z " fill="#CB9487" transform="translate(158,202)"/>
<path d="M0 0 C0.33 0.99 0.66 1.98 1 3 C3.01508358 3.73323796 3.01508358 3.73323796 5 4 C4.01 4.33 3.02 4.66 2 5 C2.99 5.33 3.98 5.66 5 6 C4.8125 7.8125 4.8125 7.8125 4 10 C1.4375 11.75 1.4375 11.75 -1 13 C-1 12.01 -1 11.02 -1 10 C-0.34 10 0.32 10 1 10 C1 9.34 1 8.68 1 8 C0.21625 7.87625 -0.5675 7.7525 -1.375 7.625 C-4 7 -4 7 -6 5 C-4.02 4.34 -2.04 3.68 0 3 C0 2.01 0 1.02 0 0 Z " fill="#D2A396" transform="translate(225,189)"/>
<path d="M0 0 C0.33 0.66 0.66 1.32 1 2 C1.66 2 2.32 2 3 2 C3 4.31 3 6.62 3 9 C1.02 9 -0.96 9 -3 9 C-3 8.01 -3 7.02 -3 6 C-3.66 6 -4.32 6 -5 6 C-5 4.68 -5 3.36 -5 2 C-3.35 1.34 -1.7 0.68 0 0 Z " fill="#F4EEED" transform="translate(37,101)"/>
<path d="M0 0 C0.66 0 1.32 0 2 0 C2.33 0.66 2.66 1.32 3 2 C5.01669827 3.13350534 5.01669827 3.13350534 7 4 C5.68 4 4.36 4 3 4 C2.67 5.65 2.34 7.3 2 9 C-1 10 -1 10 -4 10 C-4 9.34 -4 8.68 -4 8 C-3.34 8 -2.68 8 -2 8 C-2.33 6.35 -2.66 4.7 -3 3 C-2.34 3 -1.68 3 -1 3 C-0.67 2.01 -0.34 1.02 0 0 Z " fill="#E9DEDC" transform="translate(39,85)"/>
<path d="M0 0 C0.33 0.99 0.66 1.98 1 3 C1.99 3 2.98 3 4 3 C3.67 2.01 3.34 1.02 3 0 C3.99 0.33 4.98 0.66 6 1 C5 4 5 4 2.9375 5.5 C2.298125 5.995 1.65875 6.49 1 7 C1 7.99 1 8.98 1 10 C-5.93 9.505 -5.93 9.505 -13 9 C-13 8.67 -13 8.34 -13 8 C-12.37351563 7.97421875 -11.74703125 7.9484375 -11.1015625 7.921875 C-10.28429687 7.86515625 -9.46703125 7.8084375 -8.625 7.75 C-7.81289062 7.70359375 -7.00078125 7.6571875 -6.1640625 7.609375 C-3.84690237 7.21849868 -3.84690237 7.21849868 -2.8359375 5.140625 C-2.56007812 4.43421875 -2.28421875 3.7278125 -2 3 C-1.34 2.01 -0.68 1.02 0 0 Z " fill="#AF573C" transform="translate(220,188)"/>
<path d="M0 0 C0.75 2.75 0.75 2.75 1 6 C-0.9375 8.375 -0.9375 8.375 -3 10 C-3 9.34 -3 8.68 -3 8 C-3.99 7.67 -4.98 7.34 -6 7 C-6.33 5.02 -6.66 3.04 -7 1 C-4.50935112 0.31292445 -2.62113708 0 0 0 Z " fill="#F3EDEB" transform="translate(32,93)"/>
<path d="M0 0 C1.74627478 2.61941217 2.38722388 4.03824877 3 7 C2.34 7 1.68 7 1 7 C1.66 7.66 2.32 8.32 3 9 C3.66 9.66 4.32 10.32 5 11 C5.33 10.34 5.66 9.68 6 9 C6.66 10.32 7.32 11.64 8 13 C6.54096742 12.69078116 5.08279278 12.37751201 3.625 12.0625 C2.81289062 11.88847656 2.00078125 11.71445313 1.1640625 11.53515625 C-1 11 -1 11 -3 10 C-2.34 8.68 -1.68 7.36 -1 6 C-2.32 5.67 -3.64 5.34 -5 5 C-3.35 3.35 -1.7 1.7 0 0 Z " fill="#A03E22" transform="translate(75,77)"/>
<path d="M0 0 C4 5 4 5 4.0234375 8.375 C3.80945312 9.57125 3.59546875 10.7675 3.375 12 C3.17648438 13.19625 2.97796875 14.3925 2.7734375 15.625 C2.09176406 18.59957502 1.23339204 21.21696156 0 24 C-0.33 24 -0.66 24 -1 24 C-0.67 16.08 -0.34 8.16 0 0 Z " fill="#E0C1BA" transform="translate(55,165)"/>
<path d="M0 0 C0.99 0.495 0.99 0.495 2 1 C4.43869509 8.31608526 3.43438575 17.46947483 2 25 C1.67 25 1.34 25 1 25 C0.67 16.75 0.34 8.5 0 0 Z " fill="#EDDBD6" transform="translate(71,157)"/>
<path d="M0 0 C2.55571918 2.55571918 5.09816736 5.10535034 7.5625 7.75 C9.87251995 9.88232611 10.94189832 10.66021092 14 11 C12.25 14.875 12.25 14.875 10 16 C10 14.68 10 13.36 10 12 C8.68 12.33 7.36 12.66 6 13 C5.7525 12.113125 5.505 11.22625 5.25 10.3125 C3.95852983 6.89010406 2.32104675 4.7852561 0 2 C0 1.34 0 0.68 0 0 Z " fill="#F1E3DF" transform="translate(110,193)"/>
<path d="M0 0 C6.09411765 2.14117647 6.09411765 2.14117647 8 5 C8.54659898 7.67992702 8.7756791 10.26328507 9 13 C5.72404954 9.84538104 2.76373125 6.60820469 0 3 C0 2.01 0 1.02 0 0 Z " fill="#F4EFEE" transform="translate(21,24)"/>
<path d="M0 0 C2.0625 0.4375 2.0625 0.4375 4 1 C4 1.66 4 2.32 4 3 C3.34 3 2.68 3 2 3 C1.67 3.99 1.34 4.98 1 6 C0.01 6 -0.98 6 -2 6 C-2 5.01 -2 4.02 -2 3 C-2.66 3 -3.32 3 -4 3 C-4.33 3.99 -4.66 4.98 -5 6 C-5.66 6 -6.32 6 -7 6 C-6.67 5.01 -6.34 4.02 -6 3 C-6.66 2.67 -7.32 2.34 -8 2 C-8 2.66 -8 3.32 -8 4 C-8.66 4 -9.32 4 -10 4 C-9.67 3.01 -9.34 2.02 -9 1 C-7.700625 1.020625 -6.40125 1.04125 -5.0625 1.0625 C-3.70834367 1.08399454 -2.35243917 1.07148199 -1 1 C-0.67 0.67 -0.34 0.34 0 0 Z " fill="#F6EEEC" transform="translate(222,196)"/>
<path d="M0 0 C1.32 0.33 2.64 0.66 4 1 C4.625 3.3125 4.625 3.3125 5 6 C4.01 7.485 4.01 7.485 3 9 C1.68 8.34 0.36 7.68 -1 7 C-0.34 7 0.32 7 1 7 C0.67 6.34 0.34 5.68 0 5 C-2.02463255 4.34786708 -2.02463255 4.34786708 -4 4 C-3.67 3.34 -3.34 2.68 -3 2 C-2.34 2.33 -1.68 2.66 -1 3 C-0.67 2.01 -0.34 1.02 0 0 Z " fill="#7B1E05" transform="translate(46,84)"/>
<path d="M0 0 C2.82479247 2.64303638 3.56625028 4.09625254 4 8 C4.06955793 10.67301197 4.04534031 13.32492162 4 16 C1.44617265 13.77928057 0.61382461 12.30520944 0 9 C-0.06548492 7.41788427 -0.08578381 5.83329919 -0.0625 4.25 C-0.05347656 3.45078125 -0.04445313 2.6515625 -0.03515625 1.828125 C-0.02355469 1.22484375 -0.01195313 0.6215625 0 0 Z " fill="#F3E9E7" transform="translate(75,67)"/>
<path d="M0 0 C2 2 2 2 2.125 5.625 C2.08375 6.73875 2.0425 7.8525 2 9 C0.35 9.66 -1.3 10.32 -3 11 C-3.32613618 6.32538149 -2.70582788 3.83325617 0 0 Z " fill="#F2E9E7" transform="translate(66,65)"/>
<path d="M0 0 C0.33 0 0.66 0 1 0 C1.12117188 0.80824219 1.24234375 1.61648437 1.3671875 2.44921875 C1.53476563 3.51785156 1.70234375 4.58648437 1.875 5.6875 C2.03742188 6.74324219 2.19984375 7.79898438 2.3671875 8.88671875 C2.8930193 11.9908352 2.8930193 11.9908352 4.1328125 14.70703125 C5 17 5 17 4 20 C1.24671902 17.62216643 0.03055089 15.48801839 -1 12 C-1.22397431 7.81914618 -0.98608484 4.06759995 0 0 Z " fill="#CCB2AB" transform="translate(76,34)"/>
<path d="M0 0 C2.97 0.495 2.97 0.495 6 1 C6 1.66 6 2.32 6 3 C6.66 3.66 7.32 4.32 8 5 C5.09399739 6.25664978 3.20395416 7 0 7 C0 4.69 0 2.38 0 0 Z " fill="#F4EDEB" transform="translate(51,83)"/>
<path d="M0 0 C0.99 0.33 1.98 0.66 3 1 C1.68 2.65 0.36 4.3 -1 6 C-1.61875 5.814375 -2.2375 5.62875 -2.875 5.4375 C-5.04160178 4.76313824 -5.04160178 4.76313824 -7 6 C-9.125 5.0625 -9.125 5.0625 -11 4 C-9.25 2.4375 -9.25 2.4375 -7 1 C-4.9375 1.4375 -4.9375 1.4375 -3 2 C-2.01 1.34 -1.02 0.68 0 0 Z " fill="#E1C2BA" transform="translate(153,201)"/>
<path d="M0 0 C0.33 2.97 0.66 5.94 1 9 C-1.9375 8.25 -1.9375 8.25 -5 7 C-5.875 4.875 -5.875 4.875 -6 3 C-1.125 0 -1.125 0 0 0 Z " fill="#CBADA4" transform="translate(70,38)"/>
<path d="M0 0 C2.1519437 3.22791555 2.20086443 4.28400809 2 8 C1.34 8 0.68 8 0 8 C0 6.68 0 5.36 0 4 C-0.66 4 -1.32 4 -2 4 C-1.34414811 7.60992379 -1.34414811 7.60992379 0 11 C-1.32 10.67 -2.64 10.34 -4 10 C-4 8.35 -4 6.7 -4 5 C-4.66 4.67 -5.32 4.34 -6 4 C-4.02 3.34 -2.04 2.68 0 2 C0 1.34 0 0.68 0 0 Z " fill="#D3A598" transform="translate(73,201)"/>
<path d="M0 0 C0.66 0 1.32 0 2 0 C2 0.66 2 1.32 2 2 C2.99 2 3.98 2 5 2 C5 3.65 5 5.3 5 7 C-0.75 7.125 -0.75 7.125 -3 6 C-3 5.34 -3 4.68 -3 4 C-2.01 4 -1.02 4 0 4 C0 2.68 0 1.36 0 0 Z " fill="#DAB5AB" transform="translate(230,184)"/>
<path d="M0 0 C2.560881 3.24640915 4.62476717 6.66940716 6.6875 10.25 C7.31011719 11.32765625 7.93273437 12.4053125 8.57421875 13.515625 C9.04472656 14.33546875 9.51523438 15.1553125 10 16 C9.01 16.66 8.02 17.32 7 18 C5.82625827 15.56568361 4.66084237 13.12795818 3.5 10.6875 C3.16613281 9.99720703 2.83226563 9.30691406 2.48828125 8.59570312 C0 3.33984375 0 3.33984375 0 0 Z " fill="#EDDBD7" transform="translate(84,152)"/>
<path d="M0 0 C0.33 0 0.66 0 1 0 C1.1799928 5.21979128 0.97094808 9.07262981 -1 14 C-1.33 14 -1.66 14 -2 14 C-2.19573608 12.56359829 -2.38127816 11.12580496 -2.5625 9.6875 C-2.66691406 8.88699219 -2.77132812 8.08648437 -2.87890625 7.26171875 C-3 5 -3 5 -2 2 C-1.34 2 -0.68 2 0 2 C0 1.34 0 0.68 0 0 Z " fill="#8C4830" transform="translate(76,26)"/>
<path d="M0 0 C0.33 1.65 0.66 3.3 1 5 C-2.25 5.75 -2.25 5.75 -6 6 C-8.4375 4.0625 -8.4375 4.0625 -10 2 C-7.525 2.495 -7.525 2.495 -5 3 C-5 2.34 -5 1.68 -5 1 C-2 0 -2 0 0 0 Z " fill="#F2E6E3" transform="translate(191,201)"/>
<path d="M0 0 C2.64 0 5.28 0 8 0 C8 3 8 3 7 6 C6.01 6.33 5.02 6.66 4 7 C2.68 5.68 1.36 4.36 0 3 C0.99 3 1.98 3 3 3 C2.01 2.67 1.02 2.34 0 2 C0 1.34 0 0.68 0 0 Z " fill="#BA6D59" transform="translate(226,190)"/>
<path d="M0 0 C0.99 0.33 1.98 0.66 3 1 C2.01 2.485 2.01 2.485 1 4 C1.45375 3.505 1.9075 3.01 2.375 2.5 C4 1 4 1 6 1 C6 1.99 6 2.98 6 4 C6.99 4.33 7.98 4.66 9 5 C7.4375 6.125 7.4375 6.125 5 7 C1.25 6.125 1.25 6.125 -2 5 C-2 4.01 -2 3.02 -2 2 C-1.34 2 -0.68 2 0 2 C0 1.34 0 0.68 0 0 Z " fill="#C88E7E" transform="translate(214,198)"/>
<path d="M0 0 C1.31223496 3.93670488 0.24296256 6.12488144 -1 10 C-1.99 10 -2.98 10 -4 10 C-3.979375 9.071875 -3.95875 8.14375 -3.9375 7.1875 C-3.84230396 3.97713989 -3.84230396 3.97713989 -5 1 C-2 0 -2 0 0 0 Z " fill="#E4C9C2" transform="translate(63,196)"/>
<path d="M0 0 C0.66 0.33 1.32 0.66 2 1 C2 1.99 2 2.98 2 4 C-0.6875 5.625 -0.6875 5.625 -4 7 C-6.875 6.1875 -6.875 6.1875 -9 5 C-8.67 4.01 -8.34 3.02 -8 2 C-8 2.66 -8 3.32 -8 4 C-5.64828869 3.40138258 -3.3140622 2.73075648 -1 2 C-0.67 1.34 -0.34 0.68 0 0 Z " fill="#D6BCB5" transform="translate(59,74)"/>
<path d="M0 0 C2.5625 2 2.5625 2 5 5 C5.14963532 7.89116824 4.63149193 10.13399816 4 13 C0.87312592 8.30968888 -0.2610462 5.74301634 0 0 Z " fill="#C48879" transform="translate(86,62)"/>
<path d="M0 0 C1.32 0.33 2.64 0.66 4 1 C4 2.32 4 3.64 4 5 C2.68 5.33 1.36 5.66 0 6 C0 6.99 0 7.98 0 9 C-0.66 8.67 -1.32 8.34 -2 8 C-2.625 5.9375 -2.625 5.9375 -3 4 C-2.01 3.67 -1.02 3.34 0 3 C0 2.01 0 1.02 0 0 Z " fill="#F7EFEE" transform="translate(206,199)"/>
<path d="M0 0 C0.99 0.495 0.99 0.495 2 1 C2.66796875 3.36328125 2.66796875 3.36328125 3.1875 6.3125 C3.36667969 7.27800781 3.54585937 8.24351562 3.73046875 9.23828125 C3.98575791 11.85407018 3.82606605 13.53351909 3 16 C0.1647887 10.4477112 -0.37952295 6.19887485 0 0 Z " fill="#E1C3BC" transform="translate(57,133)"/>
<path d="M0 0 C0.99 0.495 0.99 0.495 2 1 C2.33 1.99 2.66 2.98 3 4 C3.66 4.33 4.32 4.66 5 5 C4.34 7.97 3.68 10.94 3 14 C2.01 13.67 1.02 13.34 0 13 C0.61277612 10.03824877 1.25372522 8.61941217 3 6 C2.34 6 1.68 6 1 6 C0.67 4.02 0.34 2.04 0 0 Z " fill="#A23618" transform="translate(86,75)"/>
<path d="M0 0 C0.99 0.33 1.98 0.66 3 1 C3.625 2.9375 3.625 2.9375 4 5 C4.33 5.66 4.66 6.32 5 7 C4.01 7.99 3.02 8.98 2 10 C1.34 8.68 0.68 7.36 0 6 C-0.33 6.66 -0.66 7.32 -1 8 C-2.2077558 4.37673261 -1.54311128 3.35853631 0 0 Z " fill="#EAD4CE" transform="translate(85,200)"/>
<path d="M0 0 C0.99 0.33 1.98 0.66 3 1 C2.6875 3.375 2.6875 3.375 2 6 C-1.22791555 8.1519437 -2.28400809 8.20086443 -6 8 C-5.67 7.34 -5.34 6.68 -5 6 C-4.34 6.33 -3.68 6.66 -3 7 C-2.67 5.68 -2.34 4.36 -2 3 C-1.01 3 -0.02 3 1 3 C0.67 2.01 0.34 1.02 0 0 Z " fill="#C68A7B" transform="translate(56,198)"/>
<path d="M0 0 C1.48165503 2.96331006 0.48358108 4.89704017 -0.3125 8.0625 C-0.57675781 9.14660156 -0.84101562 10.23070313 -1.11328125 11.34765625 C-2 14 -2 14 -4 15 C-3.40546697 4.44191344 -3.40546697 4.44191344 0 0 Z " fill="#EAD6D1" transform="translate(66,116)"/>
<path d="M0 0 C0.99 0.33 1.98 0.66 3 1 C3.33 3.31 3.66 5.62 4 8 C2.68 8 1.36 8 0 8 C0 7.34 0 6.68 0 6 C-0.66 5.67 -1.32 5.34 -2 5 C-1.34 3.35 -0.68 1.7 0 0 Z " fill="#7F2F18" transform="translate(41,79)"/>
<path d="M0 0 C0.33 0.66 0.66 1.32 1 2 C2.98 1.34 4.96 0.68 7 0 C7 0.66 7 1.32 7 2 C5.02 2.99 5.02 2.99 3 4 C3 4.66 3 5.32 3 6 C1.02 6 -0.96 6 -3 6 C-2.01 4.02 -1.02 2.04 0 0 Z " fill="#E9D2CD" transform="translate(50,199)"/>
<path d="M0 0 C0.33 0.66 0.66 1.32 1 2 C0.34 2 -0.32 2 -1 2 C0.65 3.65 2.3 5.3 4 7 C3.67 7.66 3.34 8.32 3 9 C1.68 9.33 0.36 9.66 -1 10 C-1.33 7.03 -1.66 4.06 -2 1 C-1.34 0.67 -0.68 0.34 0 0 Z " fill="#CA9181" transform="translate(96,202)"/>
<path d="M0 0 C0.33 0.66 0.66 1.32 1 2 C1.99 2 2.98 2 4 2 C3.33333333 4 2.66666667 6 2 8 C1.01 8 0.02 8 -1 8 C-1 6.68 -1 5.36 -1 4 C-1.66 3.67 -2.32 3.34 -3 3 C-3 2.34 -3 1.68 -3 1 C-2.01 0.67 -1.02 0.34 0 0 Z " fill="#D2A294" transform="translate(113,204)"/>
<path d="M0 0 C1.32 0 2.64 0 4 0 C4 0.66 4 1.32 4 2 C4.66 2 5.32 2 6 2 C6.99 3.98 7.98 5.96 9 8 C5.56247993 6.4722133 2.81046312 4.49818944 0 2 C0 1.34 0 0.68 0 0 Z " fill="#C17D6C" transform="translate(120,166)"/>
<path d="M0 0 C0.99 1.32 1.98 2.64 3 4 C2.01 4.495 2.01 4.495 1 5 C1.66 9.29 2.32 13.58 3 18 C2.34 18 1.68 18 1 18 C0.63737003 15.56348622 0.28461036 13.12623023 -0.0625 10.6875 C-0.2181543 9.65206055 -0.2181543 9.65206055 -0.37695312 8.59570312 C-0.83808836 5.30415164 -1.06594625 3.19783876 0 0 Z " fill="#BE7865" transform="translate(69,108)"/>
<path d="M0 0 C0.33 0.66 0.66 1.32 1 2 C-0.98 4.97 -0.98 4.97 -3 8 C-3.66 7.67 -4.32 7.34 -5 7 C-5 5.02 -5 3.04 -5 1 C-3.35 0.67 -1.7 0.34 0 0 Z " fill="#A64322" transform="translate(68,192)"/>
<path d="M0 0 C3.47775179 1.51553404 5.9557984 3.5773456 8.75 6.125 C9.94882813 7.21167969 9.94882813 7.21167969 11.171875 8.3203125 C11.77515625 8.87460938 12.3784375 9.42890625 13 10 C9.03990775 10 7.85479241 8.59219817 4.8125 6.125 C3.91144531 5.40570313 3.01039062 4.68640625 2.08203125 3.9453125 C1.39496094 3.30335938 0.70789063 2.66140625 0 2 C0 1.34 0 0.68 0 0 Z " fill="#EFE0DC" transform="translate(116,172)"/>
<path d="M0 0 C5.57142857 5.14285714 5.57142857 5.14285714 6 9 C5.34 9 4.68 9 4 9 C3.67 8.01 3.34 7.02 3 6 C2.34 5.67 1.68 5.34 1 5 C1 6.98 1 8.96 1 11 C0.67 11 0.34 11 0 11 C0 7.37 0 3.74 0 0 Z " fill="#A8462B" transform="translate(49,155)"/>
<path d="M0 0 C0.66 0 1.32 0 2 0 C2.33 3.63 2.66 7.26 3 11 C2.01 11.33 1.02 11.66 0 12 C0 8.04 0 4.08 0 0 Z " fill="#BF9488" transform="translate(74,50)"/>
<path d="M0 0 C0.66 0 1.32 0 2 0 C2.33 2.31 2.66 4.62 3 7 C1.68 7 0.36 7 -1 7 C-1 6.34 -1 5.68 -1 5 C-1.66 5 -2.32 5 -3 5 C-2 2 -2 2 0 0 Z " fill="#B96D5B" transform="translate(118,205)"/>
<path d="M0 0 C2.25 0.25 2.25 0.25 4 1 C4 2.32 4 3.64 4 5 C3.01 5.33 2.02 5.66 1 6 C1 5.01 1 4.02 1 3 C-0.65 3.33 -2.3 3.66 -4 4 C-2.25 1.9375 -2.25 1.9375 0 0 Z " fill="#F9F4F2" transform="translate(197,200)"/>
<path d="M0 0 C-0.33 0.66 -0.66 1.32 -1 2 C-1.33 2.99 -1.66 3.98 -2 5 C-2.99 4.67 -3.98 4.34 -5 4 C-5 3.34 -5 2.68 -5 2 C-7.31 1.67 -9.62 1.34 -12 1 C-10.66961551 0.6550855 -9.33542939 0.32483418 -8 0 C-7.154375 -0.20625 -6.30875 -0.4125 -5.4375 -0.625 C-3 -1 -3 -1 0 0 Z " fill="#E2C4BC" transform="translate(222,187)"/>
<path d="M0 0 C0.721875 0.185625 1.44375 0.37125 2.1875 0.5625 C5.12826973 1.01995307 7.14103058 0.73516357 10 0 C10 0.66 10 1.32 10 2 C9.01 2.495 9.01 2.495 8 3 C8.33 3.66 8.66 4.32 9 5 C6.1875 5.3125 6.1875 5.3125 3 5 C1.125 2.5 1.125 2.5 0 0 Z " fill="#CC978A" transform="translate(75,83)"/>
<path d="M0 0 C1.485 0.99 1.485 0.99 3 2 C3.6875 5.625 3.6875 5.625 4 9 C1.525 8.01 1.525 8.01 -1 7 C-0.67 4.69 -0.34 2.38 0 0 Z " fill="#DAC9C6" transform="translate(38,64)"/>
<path d="M0 0 C-0.33 0.99 -0.66 1.98 -1 3 C-3.97 3 -6.94 3 -10 3 C-10 2.34 -10 1.68 -10 1 C-6.61981469 -0.04005702 -3.5219721 -0.08004482 0 0 Z " fill="#BE7766" transform="translate(138,209)"/>
<path d="M0 0 C0.66 0 1.32 0 2 0 C2 0.99 2 1.98 2 3 C3.32 3 4.64 3 6 3 C6 4.32 6 5.64 6 7 C4.68 6.67 3.36 6.34 2 6 C2 5.34 2 4.68 2 4 C1.01 3.67 0.02 3.34 -1 3 C-0.67 2.01 -0.34 1.02 0 0 Z " fill="#D6ACA2" transform="translate(136,205)"/>
<path d="M0 0 C1.98 0 3.96 0 6 0 C4.625 1.5 4.625 1.5 3 3 C2.34 3 1.68 3 1 3 C0.67 3.66 0.34 4.32 0 5 C-1.32 4.67 -2.64 4.34 -4 4 C-3.67 3.34 -3.34 2.68 -3 2 C-2.34 2.33 -1.68 2.66 -1 3 C-0.67 2.01 -0.34 1.02 0 0 Z " fill="#F2E5E2" transform="translate(130,201)"/>
<path d="M0 0 C3.06393013 -0.25532751 4.63233212 -0.21861333 7.3125 1.375 C7.869375 1.91125 8.42625 2.4475 9 3 C9 3.66 9 4.32 9 5 C4.68607774 4.5206753 2.83430453 3.2542015 0 0 Z " fill="#D3A699" transform="translate(143,196)"/>
<path d="M0 0 C0.66 1.32 1.32 2.64 2 4 C1.34 4 0.68 4 0 4 C0 4.66 0 5.32 0 6 C-0.61875 5.649375 -1.2375 5.29875 -1.875 4.9375 C-2.926875 4.4734375 -2.926875 4.4734375 -4 4 C-4.99 4.495 -4.99 4.495 -6 5 C-6.33 4.01 -6.66 3.02 -7 2 C-5.1875 1.375 -5.1875 1.375 -3 1 C-2.01 1.66 -1.02 2.32 0 3 C0 2.01 0 1.02 0 0 Z " fill="#C2816F" transform="translate(50,195)"/>
<path d="M0 0 C1.65 0 3.3 0 5 0 C5 1.65 5 3.3 5 5 C3.0625 5.5625 3.0625 5.5625 1 6 C0 5 0 5 -0.0625 2.4375 C-0.041875 1.633125 -0.02125 0.82875 0 0 Z " fill="#F1E9E7" transform="translate(42,89)"/>
<path d="M0 0 C0.66 0.33 1.32 0.66 2 1 C2.680625 1.144375 3.36125 1.28875 4.0625 1.4375 C4.701875 1.623125 5.34125 1.80875 6 2 C6.33 2.66 6.66 3.32 7 4 C4.25 4.6875 4.25 4.6875 1 5 C-1.375 3.5625 -1.375 3.5625 -3 2 C-2.01 1.34 -1.02 0.68 0 0 Z " fill="#BC745D" transform="translate(163,207)"/>
<path d="M0 0 C3.26008643 3.16952847 6.22237877 6.39937989 9 10 C7.02 10.99 7.02 10.99 5 12 C4.87625 10.9171875 4.87625 10.9171875 4.75 9.8125 C3.85274392 6.44778969 2.21462486 4.64326193 0 2 C0 1.34 0 0.68 0 0 Z " fill="#D4A89D" transform="translate(110,193)"/>
<path d="M0 0 C1.32 0.66 2.64 1.32 4 2 C3.50168276 5.68754757 2.89932357 7.60490662 0 10 C-0.33 9.34 -0.66 8.68 -1 8 C-0.0625 5.375 -0.0625 5.375 1 3 C0.01 2.67 -0.98 2.34 -2 2 C-1.34 1.34 -0.68 0.68 0 0 Z " fill="#D6AB9F" transform="translate(90,77)"/>
<path d="M0 0 C-1.04874998 2.62187494 -1.64931313 3.79371361 -4.125 5.25 C-4.74375 5.4975 -5.3625 5.745 -6 6 C-6.33 4.35 -6.66 2.7 -7 1 C-4.53721199 -0.231394 -2.7204945 -0.07159196 0 0 Z " fill="#F9F3F2" transform="translate(107,201)"/>
<path d="M0 0 C0.33 0.99 0.66 1.98 1 3 C-0.4800841 2.88637738 -1.95910074 2.75877092 -3.4375 2.625 C-4.26121094 2.55539063 -5.08492187 2.48578125 -5.93359375 2.4140625 C-6.61550781 2.27742187 -7.29742187 2.14078125 -8 2 C-8.33 1.34 -8.66 0.68 -9 0 C-5.93109813 -1.53445094 -3.29905734 -0.54984289 0 0 Z " fill="#DAB3A9" transform="translate(137,199)"/>
<path d="M0 0 C2.56616632 3.84924948 2.55097676 6.4349304 3 11 C2.01 11.33 1.02 11.66 0 12 C0 8.04 0 4.08 0 0 Z " fill="#95462F" transform="translate(76,48)"/>
<path d="M0 0 C2 1.3125 2 1.3125 4 3 C4 3.99 4 4.98 4 6 C3.01 6.33 2.02 6.66 1 7 C0.34 6.34 -0.32 5.68 -1 5 C-0.67 4.67 -0.34 4.34 0 4 C-0.99 3.34 -1.98 2.68 -3 2 C-2.01 1.34 -1.02 0.68 0 0 Z " fill="#C48678" transform="translate(62,204)"/>
<path d="M0 0 C0.99 0.33 1.98 0.66 3 1 C3 2.98 3 4.96 3 7 C0.5 5.625 0.5 5.625 -2 4 C-2 3.34 -2 2.68 -2 2 C-1.34 2 -0.68 2 0 2 C0 1.34 0 0.68 0 0 Z " fill="#EBD8D3" transform="translate(97,202)"/>
<path d="M0 0 C3.875 1.75 3.875 1.75 5 4 C1.25 7 1.25 7 -1 7 C-0.67 4.69 -0.34 2.38 0 0 Z " fill="#C68A7A" transform="translate(192,197)"/>
<path d="M0 0 C5.75 1.875 5.75 1.875 8 3 C7.67 3.99 7.34 4.98 7 6 C2.32307692 4.52307692 2.32307692 4.52307692 0.6875 1.875 C0.460625 1.25625 0.23375 0.6375 0 0 Z " fill="#AC4A35" transform="translate(127,171)"/>
<path d="M0 0 C2.15377564 2.62198774 3.40072174 4.64404172 4 8 C2.68 8 1.36 8 0 8 C-1.125 2.25 -1.125 2.25 0 0 Z " fill="#9B2502" transform="translate(77,136)"/>
<path d="M0 0 C1.98 0 3.96 0 6 0 C6.33 0.66 6.66 1.32 7 2 C6.34 2 5.68 2 5 2 C4.67 2.99 4.34 3.98 4 5 C3.34 5 2.68 5 2 5 C2.33 4.01 2.66 3.02 3 2 C2.34 1.67 1.68 1.34 1 1 C1 1.66 1 2.32 1 3 C0.34 3 -0.32 3 -1 3 C-0.67 2.01 -0.34 1.02 0 0 Z " fill="#F0E1DD" transform="translate(213,197)"/>
<path d="M0 0 C0.33 0.99 0.66 1.98 1 3 C3.01508358 3.73323796 3.01508358 3.73323796 5 4 C4.443125 4.12375 3.88625 4.2475 3.3125 4.375 C0.77885636 5.05976855 -1.57921032 5.99133763 -4 7 C-4.66 6.34 -5.32 5.68 -6 5 C-4.02 4.34 -2.04 3.68 0 3 C0 2.01 0 1.02 0 0 Z " fill="#E8D1CB" transform="translate(225,189)"/>
<path d="M0 0 C1.32 0 2.64 0 4 0 C4.1875 3.375 4.1875 3.375 4 7 C3.01 7.66 2.02 8.32 1 9 C1.875 4.25 1.875 4.25 3 2 C2.01 1.67 1.02 1.34 0 1 C0 0.67 0 0.34 0 0 Z " fill="#B15B3E" transform="translate(91,75)"/>
<path d="M0 0 C0.33 0 0.66 0 1 0 C1 2.97 1 5.94 1 9 C0.01 8.34 -0.98 7.68 -2 7 C-1.125 1.125 -1.125 1.125 0 0 Z " fill="#F1E9E7" transform="translate(73,35)"/>
<path d="M0 0 C2.96175123 0.61277612 4.38058783 1.25372522 7 3 C6.01 3 5.02 3 4 3 C4 3.66 4 4.32 4 5 C3.34 5 2.68 5 2 5 C2 4.34 2 3.68 2 3 C1.01 2.67 0.02 2.34 -1 2 C-0.67 1.34 -0.34 0.68 0 0 Z " fill="#F7EFED" transform="translate(124,207)"/>
<path d="M0 0 C0.66 0 1.32 0 2 0 C3.2890625 1.53125 3.2890625 1.53125 4.625 3.5 C5.07101563 4.1496875 5.51703125 4.799375 5.9765625 5.46875 C6.31429687 5.9740625 6.65203125 6.479375 7 7 C6.67 7.66 6.34 8.32 6 9 C4.99406757 7.8803014 3.9954151 6.7540588 3 5.625 C2.443125 4.99851563 1.88625 4.37203125 1.3125 3.7265625 C0 2 0 2 0 0 Z " fill="#EEDEDA" transform="translate(103,184)"/>
<path d="M0 0 C4.95 0.99 4.95 0.99 10 2 C9.67 2.99 9.34 3.98 9 5 C4.545 3.02 4.545 3.02 0 1 C0 0.67 0 0.34 0 0 Z " fill="#A2351D" transform="translate(124,167)"/>
<path d="M0 0 C1.98 0.99 1.98 0.99 4 2 C3.67 3.65 3.34 5.3 3 7 C2.34 7 1.68 7 1 7 C0.67 4.69 0.34 2.38 0 0 Z " fill="#FDFCFB" transform="translate(79,72)"/>
<path d="M0 0 C0.99 0 1.98 0 3 0 C3 1.65 3 3.3 3 5 C1.35 5 -0.3 5 -2 5 C-2 4.34 -2 3.68 -2 3 C-1.34 3 -0.68 3 0 3 C0 2.01 0 1.02 0 0 Z " fill="#DEBBAF" transform="translate(159,207)"/>
<path d="M0 0 C0.99 0.33 1.98 0.66 3 1 C3.6875 3.0625 3.6875 3.0625 4 5 C2.35 5 0.7 5 -1 5 C-1 4.34 -1 3.68 -1 3 C-1.66 2.67 -2.32 2.34 -3 2 C-2.01 2 -1.02 2 0 2 C0 1.34 0 0.68 0 0 Z " fill="#EFDFDB" transform="translate(132,205)"/>
<path d="M0 0 C2.97 0 5.94 0 9 0 C8.67 0.66 8.34 1.32 8 2 C5.35139573 2.59355614 2.70802678 2.74209269 0 3 C0 2.01 0 1.02 0 0 Z " fill="#CA9384" transform="translate(184,206)"/>
<path d="M0 0 C1.65 0.33 3.3 0.66 5 1 C5 1.66 5 2.32 5 3 C4.01 3 3.02 3 2 3 C1.67 3.66 1.34 4.32 1 5 C0.01 5.495 0.01 5.495 -1 6 C-1 5.01 -1 4.02 -1 3 C-0.34 3 0.32 3 1 3 C0.67 2.01 0.34 1.02 0 0 Z " fill="#E2C4BD" transform="translate(139,201)"/>
<path d="M0 0 C1.65 0.33 3.3 0.66 5 1 C4.67 1.99 4.34 2.98 4 4 C3.34 3.67 2.68 3.34 2 3 C2.33 3.99 2.66 4.98 3 6 C2.34 6 1.68 6 1 6 C1 5.01 1 4.02 1 3 C0.34 2.67 -0.32 2.34 -1 2 C-0.67 1.34 -0.34 0.68 0 0 Z " fill="#F1E2DF" transform="translate(108,202)"/>
<path d="M0 0 C0.66 0 1.32 0 2 0 C2 2.31 2 4.62 2 7 C0.35 7 -1.3 7 -3 7 C-2.01 6.67 -1.02 6.34 0 6 C0 5.01 0 4.02 0 3 C-0.99 2.67 -1.98 2.34 -3 2 C-2.01 2 -1.02 2 0 2 C0 1.34 0 0.68 0 0 Z " fill="#C88E7B" transform="translate(205,196)"/>
<path d="M0 0 C0 1.98 0 3.96 0 6 C-0.99 6 -1.98 6 -3 6 C-3.33 5.01 -3.66 4.02 -4 3 C-1.125 0 -1.125 0 0 0 Z " fill="#F4EBE9" transform="translate(36,114)"/>
<path d="M0 0 C0.33 1.32 0.66 2.64 1 4 C-0.98 4 -2.96 4 -5 4 C-4.67 3.01 -4.34 2.02 -4 1 C-1.9375 0.3125 -1.9375 0.3125 0 0 Z " fill="#862910" transform="translate(54,89)"/>
<path d="M0 0 C0.66 1.32 1.32 2.64 2 4 C0.1875 5.0625 0.1875 5.0625 -2 6 C-2.99 5.67 -3.98 5.34 -5 5 C-3.35 3.35 -1.7 1.7 0 0 Z " fill="#C58F80" transform="translate(75,77)"/>
</svg>
